<?xml version="1.0" encoding="UTF-8" standalone="no"?><svg xmlns="http://www.w3.org/2000/svg" xmlns:xlink="http://www.w3.org/1999/xlink" contentStyleType="text/css" height="500px" preserveAspectRatio="none" style="width:689px;height:500px;background:#FFFFFF;" version="1.1" viewBox="0 0 689 500" width="689px" zoomAndPan="magnify"><defs/><g><!--entity FA--><g id="elem_FA"><rect fill="#F1F1F1" height="46.2969" rx="2.5" ry="2.5" style="stroke:#181818;stroke-width:0.5;" width="156" x="204" y="103"/><rect fill="#F1F1F1" height="10" style="stroke:#181818;stroke-width:0.5;" width="15" x="340" y="108"/><rect fill="#F1F1F1" height="2" style="stroke:#181818;stroke-width:0.5;" width="4" x="338" y="110"/><rect fill="#F1F1F1" height="2" style="stroke:#181818;stroke-width:0.5;" width="4" x="338" y="114"/><text fill="#000000" font-family="sans-serif" font-size="14" lengthAdjust="spacing" textLength="116" x="219" y="135.9951">Frontend Admin</text></g><!--entity FC--><g id="elem_FC"><rect fill="#F1F1F1" height="46.2969" rx="2.5" ry="2.5" style="stroke:#181818;stroke-width:0.5;" width="153" x="8.5" y="327"/><rect fill="#F1F1F1" height="10" style="stroke:#181818;stroke-width:0.5;" width="15" x="141.5" y="332"/><rect fill="#F1F1F1" height="2" style="stroke:#181818;stroke-width:0.5;" width="4" x="139.5" y="334"/><rect fill="#F1F1F1" height="2" style="stroke:#181818;stroke-width:0.5;" width="4" x="139.5" y="338"/><text fill="#000000" font-family="sans-serif" font-size="14" lengthAdjust="spacing" textLength="113" x="23.5" y="359.9951">Frontend Client</text></g><!--entity TW--><g id="elem_TW"><rect fill="#F1F1F1" height="46.2969" rx="2.5" ry="2.5" style="stroke:#181818;stroke-width:0.5;" width="120" x="398" y="103"/><rect fill="#F1F1F1" height="10" style="stroke:#181818;stroke-width:0.5;" width="15" x="498" y="108"/><rect fill="#F1F1F1" height="2" style="stroke:#181818;stroke-width:0.5;" width="4" x="496" y="110"/><rect fill="#F1F1F1" height="2" style="stroke:#181818;stroke-width:0.5;" width="4" x="496" y="114"/><text fill="#000000" font-family="sans-serif" font-size="14" lengthAdjust="spacing" textLength="80" x="413" y="135.9951">Twitter API</text></g><!--entity API--><g id="elem_API"><rect fill="#F1F1F1" height="46.2969" rx="2.5" ry="2.5" style="stroke:#181818;stroke-width:0.5;" width="130" x="553" y="103"/><rect fill="#F1F1F1" height="10" style="stroke:#181818;stroke-width:0.5;" width="15" x="663" y="108"/><rect fill="#F1F1F1" height="2" style="stroke:#181818;stroke-width:0.5;" width="4" x="661" y="110"/><rect fill="#F1F1F1" height="2" style="stroke:#181818;stroke-width:0.5;" width="4" x="661" y="114"/><text fill="#000000" font-family="sans-serif" font-size="14" lengthAdjust="spacing" textLength="90" x="568" y="135.9951">API Receiver</text></g><!--entity F--><g id="elem_F"><rect fill="#F1F1F1" height="46.2969" rx="2.5" ry="2.5" style="stroke:#181818;stroke-width:0.5;" width="78" x="579" y="327"/><rect fill="#F1F1F1" height="10" style="stroke:#181818;stroke-width:0.5;" width="15" x="637" y="332"/><rect fill="#F1F1F1" height="2" style="stroke:#181818;stroke-width:0.5;" width="4" x="635" y="334"/><rect fill="#F1F1F1" height="2" style="stroke:#181818;stroke-width:0.5;" width="4" x="635" y="338"/><text fill="#000000" font-family="sans-serif" font-size="14" lengthAdjust="spacing" textLength="38" x="594" y="359.9951">Filter</text></g><!--entity SB--><g id="elem_SB"><rect fill="#F1F1F1" height="46.2969" rx="2.5" ry="2.5" style="stroke:#181818;stroke-width:0.5;" width="153" x="390.5" y="327"/><rect fill="#F1F1F1" height="10" style="stroke:#181818;stroke-width:0.5;" width="15" x="523.5" y="332"/><rect fill="#F1F1F1" height="2" style="stroke:#181818;stroke-width:0.5;" width="4" x="521.5" y="334"/><rect fill="#F1F1F1" height="2" style="stroke:#181818;stroke-width:0.5;" width="4" x="521.5" y="338"/><text fill="#000000" font-family="sans-serif" font-size="14" lengthAdjust="spacing" textLength="113" x="405.5" y="359.9951">Server backend</text></g><!--entity NA--><g id="elem_NA"><rect fill="#F1F1F1" height="46.2969" rx="2.5" ry="2.5" style="stroke:#181818;stroke-width:0.5;" width="159" x="196.5" y="327"/><rect fill="#F1F1F1" height="10" style="stroke:#181818;stroke-width:0.5;" width="15" x="335.5" y="332"/><rect fill="#F1F1F1" height="2" style="stroke:#181818;stroke-width:0.5;" width="4" x="333.5" y="334"/><rect fill="#F1F1F1" height="2" style="stroke:#181818;stroke-width:0.5;" width="4" x="333.5" y="338"/><text fill="#000000" font-family="sans-serif" font-size="14" lengthAdjust="spacing" textLength="119" x="211.5" y="359.9951">Navigator Admin</text></g><!--entity NC--><g id="elem_NC"><rect fill="#F1F1F1" height="46.2969" rx="2.5" ry="2.5" style="stroke:#181818;stroke-width:0.5;" width="156" x="7" y="103"/><rect fill="#F1F1F1" height="10" style="stroke:#181818;stroke-width:0.5;" width="15" x="143" y="108"/><rect fill="#F1F1F1" height="2" style="stroke:#181818;stroke-width:0.5;" width="4" x="141" y="110"/><rect fill="#F1F1F1" height="2" style="stroke:#181818;stroke-width:0.5;" width="4" x="141" y="114"/><text fill="#000000" font-family="sans-serif" font-size="14" lengthAdjust="spacing" textLength="116" x="22" y="135.9951">Navigator Client</text></g><!--entity JSON--><g id="elem_JSON"><ellipse cx="538" cy="14" fill="#F1F1F1" rx="8" ry="8" style="stroke:#181818;stroke-width:0.5;"/><text fill="#000000" font-family="sans-serif" font-size="14" lengthAdjust="spacing" textLength="34" x="521" y="43.9951">JSON</text></g><!--entity POSTS1--><g id="elem_POSTS1"><ellipse cx="618" cy="238" fill="#F1F1F1" rx="8" ry="8" style="stroke:#181818;stroke-width:0.5;"/><text fill="#000000" font-family="sans-serif" font-size="14" lengthAdjust="spacing" textLength="39" x="598.5" y="267.9951">Posts</text></g><!--entity POSTS2--><g id="elem_POSTS2"><ellipse cx="470" cy="238" fill="#F1F1F1" rx="8" ry="8" style="stroke:#181818;stroke-width:0.5;"/><text fill="#000000" font-family="sans-serif" font-size="14" lengthAdjust="spacing" textLength="39" x="450.5" y="267.9951">Posts</text></g><!--entity CONFIG--><g id="elem_CONFIG"><ellipse cx="375" cy="238" fill="#F1F1F1" rx="8" ry="8" style="stroke:#181818;stroke-width:0.5;"/><text fill="#000000" font-family="sans-serif" font-size="14" lengthAdjust="spacing" textLength="47" x="351.5" y="267.9951">Config</text></g><!--entity HTML1--><g id="elem_HTML1"><ellipse cx="279" cy="238" fill="#F1F1F1" rx="8" ry="8" style="stroke:#181818;stroke-width:0.5;"/><text fill="#000000" font-family="sans-serif" font-size="14" lengthAdjust="spacing" textLength="39" x="259.5" y="267.9951">HTML</text></g><!--entity HTML2--><g id="elem_HTML2"><ellipse cx="85" cy="238" fill="#F1F1F1" rx="8" ry="8" style="stroke:#181818;stroke-width:0.5;"/><text fill="#000000" font-family="sans-serif" font-size="14" lengthAdjust="spacing" textLength="39" x="65.5" y="267.9951">HTML</text></g><!--entity POST--><g id="elem_POST"><ellipse cx="276" cy="462" fill="#F1F1F1" rx="8" ry="8" style="stroke:#181818;stroke-width:0.5;"/><text fill="#000000" font-family="sans-serif" font-size="14" lengthAdjust="spacing" textLength="32" x="260" y="491.9951">Post</text></g><!--link JSON to TW--><g id="link_JSON_TW"><path d="M531.987,23.268 C519.85,39.956 492.063,78.164 474.209,102.713 " fill="none" id="JSON-TW" style="stroke:#181818;stroke-width:1.0;"/></g><!--reverse link JSON to API--><g id="link_JSON_API"><path d="M547.132,27.556 C560.431,45.843 585.332,80.082 601.791,102.713 " fill="none" id="JSON-backto-API" style="stroke:#181818;stroke-width:1.0;stroke-dasharray:7.0,7.0;"/><polygon fill="#181818" points="544.013,23.268,546.0734,32.8989,546.9546,27.3111,552.5424,28.1923,544.013,23.268" style="stroke:#181818;stroke-width:1.0;"/></g><!--link API to POSTS1--><g id="link_API_POSTS1"><path d="M618,149.26 C618,173.869 618,212.227 618,228.856 " fill="none" id="API-POSTS1" style="stroke:#181818;stroke-width:1.0;"/></g><!--reverse link POSTS1 to F--><g id="link_POSTS1_F"><path d="M618,252.5 C618,271 618,304.465 618,326.713 " fill="none" id="POSTS1-backto-F" style="stroke:#181818;stroke-width:1.0;stroke-dasharray:7.0,7.0;"/><polygon fill="#181818" points="618,247.268,614,256.268,618,252.268,622,256.268,618,247.268" style="stroke:#181818;stroke-width:1.0;"/></g><!--link POSTS2 to F--><g id="link_POSTS2_F"><path d="M479.258,245.881 C500.648,261.779 554.261,301.626 588.231,326.874 " fill="none" id="POSTS2-F" style="stroke:#181818;stroke-width:1.0;"/></g><!--reverse link POSTS2 to SB--><g id="link_POSTS2_SB"><path d="M469.632,252.5 C469.127,271 468.215,304.465 467.608,326.713 " fill="none" id="POSTS2-backto-SB" style="stroke:#181818;stroke-width:1.0;stroke-dasharray:7.0,7.0;"/><polygon fill="#181818" points="469.775,247.268,465.5296,256.1549,469.6378,252.2661,473.5266,256.3743,469.775,247.268" style="stroke:#181818;stroke-width:1.0;"/></g><!--reverse link CONFIG to SB--><g id="link_CONFIG_SB"><path d="M385.502,251.556 C400.796,269.843 429.432,304.082 448.36,326.713 " fill="none" id="CONFIG-backto-SB" style="stroke:#181818;stroke-width:1.0;stroke-dasharray:7.0,7.0;"/><polygon fill="#181818" points="381.915,247.268,384.6194,256.7383,385.1222,251.1038,390.7567,251.6067,381.915,247.268" style="stroke:#181818;stroke-width:1.0;"/></g><!--link FA to CONFIG--><g id="link_FA_CONFIG"><path d="M300.82,149.26 C321.626,173.869 354.056,212.227 368.114,228.856 " fill="none" id="FA-CONFIG" style="stroke:#181818;stroke-width:1.0;"/></g><!--link SB to POST--><g id="link_SB_POST"><path d="M428.348,373.26 C383.002,399.3758 310.77,440.9755 285.277,455.6573 " fill="none" id="SB-POST" style="stroke:#181818;stroke-width:1.0;"/></g><!--link FC to POST--><g id="link_FC_POST"><path d="M123.652,373.26 C166.518,397.9476 233.41,436.4719 262.133,453.014 " fill="none" id="FC-to-POST" style="stroke:#181818;stroke-width:1.0;stroke-dasharray:7.0,7.0;"/><polygon fill="#181818" points="266.723,455.6573,260.9207,447.6991,262.3903,453.1617,256.9277,454.6313,266.723,455.6573" style="stroke:#181818;stroke-width:1.0;"/></g><!--reverse link HTML1 to NA--><g id="link_HTML1_NA"><path d="M278.632,252.5 C278.127,271 277.215,304.465 276.608,326.713 " fill="none" id="HTML1-backto-NA" style="stroke:#181818;stroke-width:1.0;stroke-dasharray:7.0,7.0;"/><polygon fill="#181818" points="278.775,247.268,274.5296,256.1549,278.6378,252.2661,282.5266,256.3743,278.775,247.268" style="stroke:#181818;stroke-width:1.0;"/></g><!--link FA to HTML1--><g id="link_FA_HTML1"><path d="M281.393,149.26 C280.722,173.869 279.676,212.227 279.222,228.856 " fill="none" id="FA-HTML1" style="stroke:#181818;stroke-width:1.0;"/></g><!--link NC to HTML2--><g id="link_NC_HTML2"><path d="M85,149.26 C85,171.562 85,205.156 85,223.635 " fill="none" id="NC-to-HTML2" style="stroke:#181818;stroke-width:1.0;stroke-dasharray:7.0,7.0;"/><polygon fill="#181818" points="85,228.856,89,219.856,85,223.856,81,219.856,85,228.856" style="stroke:#181818;stroke-width:1.0;"/></g><!--link HTML2 to FC--><g id="link_HTML2_FC"><path d="M85,247.268 C85,263.956 85,302.164 85,326.713 " fill="none" id="HTML2-FC" style="stroke:#181818;stroke-width:1.0;"/></g><!--SRC=[RP0nQyCm48Nt-nL7fcQ88PvBGH6eJKXaKnawY0vkeWQHL0PP97-_qaanXdQnttqdlNiwBVpWWd4dPASVwpwn7r4mq1FcLsjSo9o3xkus1EEHjLjYtGVegF7T78sz6KymWkXWhw7K0hGoFdRngpzUeYjHjG4j-vizzs7mi_6IpVbilkJmjCJ5JZLoaUeaYBJ364P2RQCwjVuFrWJvuBxjcIXlfDY-4dth3djYIQp_edeodFm0qdHShT86I3vN5JqyRIFYaYJ_g2boKQVkf5CZBYA7ULI2fJCbeDeyx41mhAgNCXyeB5sH3CkT_02G-M3EJbyQody1]--></g></svg>