<?xml version="1.0" encoding="UTF-8" standalone="no"?><svg xmlns="http://www.w3.org/2000/svg" xmlns:xlink="http://www.w3.org/1999/xlink" contentStyleType="text/css" height="458px" preserveAspectRatio="none" style="width:903px;height:458px;background:#FFFFFF;" version="1.1" viewBox="0 0 903 458" width="903px" zoomAndPan="magnify"><defs/><g><!--cluster Persistant Server--><g id="cluster_Persistant Server"><polygon fill="none" points="22.5,69,32.5,59,716.5,59,716.5,359,706.5,369,22.5,369,22.5,69" style="stroke:#181818;stroke-width:1.0;"/><line style="stroke:#181818;stroke-width:1.0;" x1="706.5" x2="716.5" y1="69" y2="59"/><line style="stroke:#181818;stroke-width:1.0;" x1="22.5" x2="706.5" y1="69" y2="69"/><line style="stroke:#181818;stroke-width:1.0;" x1="706.5" x2="706.5" y1="69" y2="369"/><text fill="#000000" font-family="sans-serif" font-size="14" font-weight="bold" lengthAdjust="spacing" textLength="141" x="295" y="84.9951">Persistant Server</text></g><!--cluster S--><g id="cluster_S"><rect fill="none" height="132" rx="2.5" ry="2.5" style="stroke:#181818;stroke-width:1.0;" width="188" x="504.5" y="133"/><rect fill="none" height="10" style="stroke:#181818;stroke-width:1.0;" width="15" x="672.5" y="138"/><rect fill="none" height="2" style="stroke:#181818;stroke-width:1.0;" width="4" x="670.5" y="140"/><rect fill="none" height="2" style="stroke:#181818;stroke-width:1.0;" width="4" x="670.5" y="144"/><text fill="#000000" font-family="sans-serif" font-size="14" font-weight="bold" lengthAdjust="spacing" textLength="123" x="537" y="158.9951">Server backend</text></g><!--cluster FC--><g id="cluster_FC"><rect fill="none" height="121" rx="2.5" ry="2.5" style="stroke:#181818;stroke-width:1.0;" width="190" x="290.5" y="198"/><rect fill="none" height="10" style="stroke:#181818;stroke-width:1.0;" width="15" x="460.5" y="203"/><rect fill="none" height="2" style="stroke:#181818;stroke-width:1.0;" width="4" x="458.5" y="205"/><rect fill="none" height="2" style="stroke:#181818;stroke-width:1.0;" width="4" x="458.5" y="209"/><text fill="#000000" font-family="sans-serif" font-size="14" font-weight="bold" lengthAdjust="spacing" textLength="125" x="323" y="223.9951">Frontend Client</text></g><!--cluster FA--><g id="cluster_FA"><rect fill="none" height="132" rx="2.5" ry="2.5" style="stroke:#181818;stroke-width:1.0;" width="139" x="72.5" y="133"/><rect fill="none" height="10" style="stroke:#181818;stroke-width:1.0;" width="15" x="191.5" y="138"/><rect fill="none" height="2" style="stroke:#181818;stroke-width:1.0;" width="4" x="189.5" y="140"/><rect fill="none" height="2" style="stroke:#181818;stroke-width:1.0;" width="4" x="189.5" y="144"/><text fill="#000000" font-family="sans-serif" font-size="14" font-weight="bold" lengthAdjust="spacing" textLength="129" x="77.5" y="158.9951">Frontend Admin</text></g><!--entity DataAccess--><g id="elem_DataAccess"><ellipse cx="47.5" cy="231.5" fill="#F1F1F1" rx="8" ry="8" style="stroke:#181818;stroke-width:0.5;"/><text fill="#000000" font-family="sans-serif" font-size="14" lengthAdjust="spacing" textLength="83" x="6" y="261.4951">DataAccess</text></g><text fill="#000000" font-family="sans-serif" font-size="14" lengthAdjust="spacing" textLength="40" x="578.5" y="111.6982">posts</text><rect fill="#F1F1F1" height="12" style="stroke:#181818;stroke-width:1.5;" width="12" x="592.5" y="127"/><text fill="#000000" font-family="sans-serif" font-size="14" lengthAdjust="spacing" textLength="56" x="358" y="337.9951">portout</text><rect fill="#F1F1F1" height="12" style="stroke:#181818;stroke-width:1.5;" width="12" x="380" y="313"/><text fill="#000000" font-family="sans-serif" font-size="14" lengthAdjust="spacing" textLength="74" x="135" y="111.6982">connexion</text><rect fill="#F1F1F1" height="12" style="stroke:#181818;stroke-width:1.5;" width="12" x="166" y="127"/><!--entity HTTP--><g id="elem_HTTP"><ellipse cx="386.5" cy="420" fill="#F1F1F1" rx="8" ry="8" style="stroke:#181818;stroke-width:0.5;"/><text fill="#000000" font-family="sans-serif" font-size="14" lengthAdjust="spacing" textLength="37" x="368" y="449.9951">HTTP</text></g><!--entity TwitterAPI--><g id="elem_TwitterAPI"><ellipse cx="398.5" cy="14" fill="#F1F1F1" rx="8" ry="8" style="stroke:#181818;stroke-width:0.5;"/><text fill="#000000" font-family="sans-serif" font-size="14" lengthAdjust="spacing" textLength="76" x="360.5" y="43.9951">TwitterAPI</text></g><!--entity LinkedInAPI--><g id="elem_LinkedInAPI"><ellipse cx="529.5" cy="14" fill="#F1F1F1" rx="8" ry="8" style="stroke:#181818;stroke-width:0.5;"/><text fill="#000000" font-family="sans-serif" font-size="14" lengthAdjust="spacing" textLength="84" x="487.5" y="43.9951">LinkedInAPI</text></g><!--entity FacebookAPI--><g id="elem_FacebookAPI"><ellipse cx="668.5" cy="14" fill="#F1F1F1" rx="8" ry="8" style="stroke:#181818;stroke-width:0.5;"/><text fill="#000000" font-family="sans-serif" font-size="14" lengthAdjust="spacing" textLength="93" x="622" y="43.9951">FacebookAPI</text></g><!--entity InstagramAPI--><g id="elem_InstagramAPI"><ellipse cx="812.5" cy="14" fill="#F1F1F1" rx="8" ry="8" style="stroke:#181818;stroke-width:0.5;"/><text fill="#000000" font-family="sans-serif" font-size="14" lengthAdjust="spacing" textLength="95" x="765" y="43.9951">InstagramAPI</text></g><!--entity LearningBehaviourAPI--><g id="elem_LearningBehaviourAPI"><ellipse cx="818.5" cy="133" fill="#F1F1F1" rx="8" ry="8" style="stroke:#181818;stroke-width:0.5;"/><text fill="#000000" font-family="sans-serif" font-size="14" lengthAdjust="spacing" textLength="156" x="740.5" y="162.9951">LearningBehaviourAPI</text></g><!--entity Raspberry--><g id="elem_Raspberry"><rect fill="#F1F1F1" height="46.2969" rx="2.5" ry="2.5" style="stroke:#181818;stroke-width:0.5;" width="114" x="430.5" y="397"/><rect fill="#F1F1F1" height="10" style="stroke:#181818;stroke-width:0.5;" width="15" x="524.5" y="402"/><rect fill="#F1F1F1" height="2" style="stroke:#181818;stroke-width:0.5;" width="4" x="522.5" y="404"/><rect fill="#F1F1F1" height="2" style="stroke:#181818;stroke-width:0.5;" width="4" x="522.5" y="408"/><text fill="#000000" font-family="sans-serif" font-size="14" lengthAdjust="spacing" textLength="74" x="445.5" y="429.9951">Raspberry</text></g><!--link FA to DataAccess--><g id="link_FA_DataAccess"><path d="M72.3945,231.5 C72.3423,231.5 72.29,231.5 72.2377,231.5 C72.0286,231.5 71.8195,231.5 71.6104,231.5 C69.9375,231.5 68.2647,231.5 66.5918,231.5 C63.2461,231.5 59.9004,231.5 56.5547,231.5 " fill="none" id="FA-DataAccess" style="stroke:#181818;stroke-width:1.0;"/></g><!--link DataAccess to S--><g id="link_DataAccess_S"><path d="M52.1112,222.236 C59.5413,208.589 75.627,183.848 98,176 C135.431,162.87 416.007,168.722 455,176 C466.7505,178.1933 478.7778,181.3156 490.6261,184.9753 C493.5882,185.8902 496.539,186.8387 499.4716,187.8146 C500.9379,188.3026 502.3996,188.7974 503.8558,189.2984 C504.0379,189.361 504.2198,189.4237 504.4017,189.4865 " fill="none" id="DataAccess-S" style="stroke:#181818;stroke-width:1.0;"/></g><!--link S to FC--><g id="link_S_FC"><path d="M504.3861,231.5 C504.1972,231.5 504.0084,231.5 503.8195,231.5 C503.064,231.5 502.3085,231.5 501.553,231.5 C498.531,231.5 495.509,231.5 492.487,231.5 C489.465,231.5 486.443,231.5 483.421,231.5 C482.6655,231.5 481.91,231.5 481.1545,231.5 C480.9656,231.5 480.7768,231.5 480.5879,231.5 " fill="none" id="S-FC" style="stroke:#181818;stroke-width:1.0;"/></g><!--link portout to HTTP--><g id="link_portout_HTTP"><path d="M386.5,325.046 C386.5,339.866 386.5,383.6156 386.5,405.7925 " fill="none" id="portout-to-HTTP" style="stroke:#181818;stroke-width:1.0;"/><polygon fill="#181818" points="386.5,410.9351,390.5,401.9351,386.5,405.9351,382.5,401.9351,386.5,410.9351" style="stroke:#181818;stroke-width:1.0;"/></g><!--link TwitterAPI to posts--><g id="link_TwitterAPI_posts"><path d="M407.613,20.331 C440.389,39.505 552.207,104.919 587.639,125.646 " fill="none" id="TwitterAPI-to-posts" style="stroke:#181818;stroke-width:1.0;"/><polygon fill="#181818" points="592.293,128.369,586.5438,120.3723,587.9771,125.8446,582.5048,127.2778,592.293,128.369" style="stroke:#181818;stroke-width:1.0;"/></g><!--link LinkedInAPI to posts--><g id="link_LinkedInAPI_posts"><path d="M534.243,23.042 C546.584,43.969 579.659,100.052 592.903,122.51 " fill="none" id="LinkedInAPI-to-posts" style="stroke:#181818;stroke-width:1.0;"/><polygon fill="#181818" points="595.55,126.998,594.4238,117.2137,593.0102,122.6911,587.5328,121.2775,595.55,126.998" style="stroke:#181818;stroke-width:1.0;"/></g><!--link FacebookAPI to posts--><g id="link_FacebookAPI_posts"><path d="M663.689,23.042 C651.168,43.969 617.614,100.052 604.178,122.51 " fill="none" id="FacebookAPI-to-posts" style="stroke:#181818;stroke-width:1.0;"/><polygon fill="#181818" points="601.492,126.998,609.5458,121.3291,604.0594,122.7075,602.681,117.2212,601.492,126.998" style="stroke:#181818;stroke-width:1.0;"/></g><!--link InstagramAPI to posts--><g id="link_InstagramAPI_posts"><path d="M803.248,18.808 C789.608,24.373 763.257,34.942 740.5,43 C729.503,46.894 725.966,45.846 715.5,51 C672.642,72.107 627.773,107.544 608.385,123.619 " fill="none" id="InstagramAPI-to-posts" style="stroke:#181818;stroke-width:1.0;"/><polygon fill="#181818" points="604.435,126.919,613.9064,124.2184,608.2721,123.7133,608.7773,118.079,604.435,126.919" style="stroke:#181818;stroke-width:1.0;"/></g><!--link LearningBehaviourAPI to S--><g id="link_LearningBehaviourAPI_S"><path d="M809.327,138.024 C792.8595,145.247 756.439,161.2223 718.4246,177.8966 C713.6728,179.9809 708.8961,182.0761 704.1304,184.1666 C701.7475,185.2118 699.3674,186.2558 696.9945,187.2966 C695.808,187.817 694.6233,188.3367 693.4411,188.8552 C693.1455,188.9849 692.8501,189.1145 692.5548,189.244 " fill="none" id="LearningBehaviourAPI-to-S" style="stroke:#181818;stroke-width:1.0;"/><polygon fill="#181818" points="692.5548,189.244,702.4035,189.2919,697.1337,187.2355,699.19,181.9657,692.5548,189.244" style="stroke:#181818;stroke-width:1.0;"/></g><!--link HTTP to Raspberry--><g id="link_HTTP_Raspberry"><path d="M395.574,420 C407.185,420 418.795,420 430.405,420 " fill="none" id="HTTP-Raspberry" style="stroke:#181818;stroke-width:1.0;"/></g><!--SRC=[RP31JeGm48RlVOe9Trx113544Wz4k1aFGvci3J93fjrLO_RT7M1NnNXe9ltQR-PlMGQ2h26D8IRa12tfYJG3-7G0NgPPc0nd6uSU_KWyP80HslKEm2oQ0bk9AHeuszgxbGediw1y3GPMkIf_sN9Crtffy9zT35FWJIxsexqmqtiGljXsdiCT9YoyfxY4-jdOIMkWjLgLIzIpSzSCUNu3zrtNkEujf4HQDFNAjgSz11vfg7bFA_JKYunxMhDzvq5n-jE2K3dmuPPUy1Ja-3sXTMuPRA6U7Z7EFQb-F7y1]--></g></svg>