<?xml version="1.0" encoding="UTF-8" standalone="no"?><svg xmlns="http://www.w3.org/2000/svg" xmlns:xlink="http://www.w3.org/1999/xlink" contentStyleType="text/css" height="528px" preserveAspectRatio="none" style="width:683px;height:528px;background:#FFFFFF;" version="1.1" viewBox="0 0 683 528" width="683px" zoomAndPan="magnify"><defs/><g><!--MD5=[db5ca709379f12a280ab2b7d6533fd7d]
entity SB--><g id="elem_SB"><rect fill="#F1F1F1" height="49.0679" rx="2.5" ry="2.5" style="stroke:#181818;stroke-width:0.5;" width="144" x="7" y="240"/><rect fill="#F1F1F1" height="10" style="stroke:#181818;stroke-width:0.5;" width="15" x="131" y="245"/><rect fill="#F1F1F1" height="2" style="stroke:#181818;stroke-width:0.5;" width="4" x="129" y="247"/><rect fill="#F1F1F1" height="2" style="stroke:#181818;stroke-width:0.5;" width="4" x="129" y="251"/><text fill="#000000" font-family="sans-serif" font-size="14" lengthAdjust="spacing" textLength="104" x="22" y="274.9659">Server backend</text></g><!--MD5=[645d8587175d8f7ad110cd370775931d]
entity API--><g id="elem_API"><rect fill="#F1F1F1" height="49.0679" rx="2.5" ry="2.5" style="stroke:#181818;stroke-width:0.5;" width="123" x="554.5" y="240"/><rect fill="#F1F1F1" height="10" style="stroke:#181818;stroke-width:0.5;" width="15" x="657.5" y="245"/><rect fill="#F1F1F1" height="2" style="stroke:#181818;stroke-width:0.5;" width="4" x="655.5" y="247"/><rect fill="#F1F1F1" height="2" style="stroke:#181818;stroke-width:0.5;" width="4" x="655.5" y="251"/><text fill="#000000" font-family="sans-serif" font-size="14" lengthAdjust="spacing" textLength="83" x="569.5" y="274.9659">API Receiver</text></g><!--MD5=[22029b2902cbfefb11350e8ee6e306b3]
entity F--><g id="elem_F"><rect fill="#F1F1F1" height="49.0679" rx="2.5" ry="2.5" style="stroke:#181818;stroke-width:0.5;" width="74" x="42" y="473"/><rect fill="#F1F1F1" height="10" style="stroke:#181818;stroke-width:0.5;" width="15" x="96" y="478"/><rect fill="#F1F1F1" height="2" style="stroke:#181818;stroke-width:0.5;" width="4" x="94" y="480"/><rect fill="#F1F1F1" height="2" style="stroke:#181818;stroke-width:0.5;" width="4" x="94" y="484"/><text fill="#000000" font-family="sans-serif" font-size="14" lengthAdjust="spacing" textLength="34" x="57" y="507.9659">Filter</text></g><!--MD5=[1364da7149c555d30494bbf5399437dc]
entity NC--><g id="elem_NC"><rect fill="#F1F1F1" height="49.0679" rx="2.5" ry="2.5" style="stroke:#181818;stroke-width:0.5;" width="149" x="372.5" y="7"/><rect fill="#F1F1F1" height="10" style="stroke:#181818;stroke-width:0.5;" width="15" x="501.5" y="12"/><rect fill="#F1F1F1" height="2" style="stroke:#181818;stroke-width:0.5;" width="4" x="499.5" y="14"/><rect fill="#F1F1F1" height="2" style="stroke:#181818;stroke-width:0.5;" width="4" x="499.5" y="18"/><text fill="#000000" font-family="sans-serif" font-size="14" lengthAdjust="spacing" textLength="109" x="387.5" y="41.9659">Navigator Client</text></g><!--MD5=[877d572b3faf713582ff96d0839c9d50]
entity FA--><g id="elem_FA"><rect fill="#F1F1F1" height="49.0679" rx="2.5" ry="2.5" style="stroke:#181818;stroke-width:0.5;" width="149" x="119.5" y="7"/><rect fill="#F1F1F1" height="10" style="stroke:#181818;stroke-width:0.5;" width="15" x="248.5" y="12"/><rect fill="#F1F1F1" height="2" style="stroke:#181818;stroke-width:0.5;" width="4" x="246.5" y="14"/><rect fill="#F1F1F1" height="2" style="stroke:#181818;stroke-width:0.5;" width="4" x="246.5" y="18"/><text fill="#000000" font-family="sans-serif" font-size="14" lengthAdjust="spacing" textLength="109" x="134.5" y="41.9659">Frontend Admin</text></g><!--MD5=[00d6eea7185566d94c46a8f1f055f92e]
entity FC--><g id="elem_FC"><rect fill="#F1F1F1" height="49.0679" rx="2.5" ry="2.5" style="stroke:#181818;stroke-width:0.5;" width="144" x="375" y="240"/><rect fill="#F1F1F1" height="10" style="stroke:#181818;stroke-width:0.5;" width="15" x="499" y="245"/><rect fill="#F1F1F1" height="2" style="stroke:#181818;stroke-width:0.5;" width="4" x="497" y="247"/><rect fill="#F1F1F1" height="2" style="stroke:#181818;stroke-width:0.5;" width="4" x="497" y="251"/><text fill="#000000" font-family="sans-serif" font-size="14" lengthAdjust="spacing" textLength="104" x="390" y="274.9659">Frontend Client</text></g><!--MD5=[0f022f6bf214de955a18bb39c24d468f]
entity NA--><g id="elem_NA"><rect fill="#F1F1F1" height="49.0679" rx="2.5" ry="2.5" style="stroke:#181818;stroke-width:0.5;" width="154" x="186" y="240"/><rect fill="#F1F1F1" height="10" style="stroke:#181818;stroke-width:0.5;" width="15" x="320" y="245"/><rect fill="#F1F1F1" height="2" style="stroke:#181818;stroke-width:0.5;" width="4" x="318" y="247"/><rect fill="#F1F1F1" height="2" style="stroke:#181818;stroke-width:0.5;" width="4" x="318" y="251"/><text fill="#000000" font-family="sans-serif" font-size="14" lengthAdjust="spacing" textLength="114" x="201" y="274.9659">Navigator Admin</text></g><!--MD5=[5f674b42396a1c5afcc6a8798c1c2f05]
entity TW--><g id="elem_TW"><rect fill="#F1F1F1" height="49.0679" rx="2.5" ry="2.5" style="stroke:#181818;stroke-width:0.5;" width="113" x="559.5" y="7"/><rect fill="#F1F1F1" height="10" style="stroke:#181818;stroke-width:0.5;" width="15" x="652.5" y="12"/><rect fill="#F1F1F1" height="2" style="stroke:#181818;stroke-width:0.5;" width="4" x="650.5" y="14"/><rect fill="#F1F1F1" height="2" style="stroke:#181818;stroke-width:0.5;" width="4" x="650.5" y="18"/><text fill="#000000" font-family="sans-serif" font-size="14" lengthAdjust="spacing" textLength="73" x="574.5" y="41.9659">Twitter API</text></g><!--MD5=[22e6038e6e27d0d14f9906e81bc7e2c8]
entity POST--><g id="elem_POST"><ellipse cx="298" cy="381" fill="#F1F1F1" rx="8" ry="8" style="stroke:#181818;stroke-width:0.5;"/><text fill="#000000" font-family="sans-serif" font-size="14" lengthAdjust="spacing" textLength="28" x="284" y="412.9659">Post</text></g><!--MD5=[e61555581933ec9c3f71ef0ce5a39fca]
entity POSTS1--><g id="elem_POSTS1"><ellipse cx="501" cy="381" fill="#F1F1F1" rx="8" ry="8" style="stroke:#181818;stroke-width:0.5;"/><text fill="#000000" font-family="sans-serif" font-size="14" lengthAdjust="spacing" textLength="28" x="487" y="412.9659">Post</text></g><!--MD5=[5b714484fd072a0710a3eed5daac0d0e]
entity POSTS2--><g id="elem_POSTS2"><ellipse cx="79" cy="381" fill="#F1F1F1" rx="8" ry="8" style="stroke:#181818;stroke-width:0.5;"/><text fill="#000000" font-family="sans-serif" font-size="14" lengthAdjust="spacing" textLength="28" x="65" y="412.9659">Post</text></g><!--MD5=[f728c4bafa0ed2c34c25d6b330f5d83d]
entity CONFIG--><g id="elem_CONFIG"><ellipse cx="125" cy="148" fill="#F1F1F1" rx="8" ry="8" style="stroke:#181818;stroke-width:0.5;"/><text fill="#000000" font-family="sans-serif" font-size="14" lengthAdjust="spacing" textLength="44" x="103" y="179.9659">Config</text></g><!--MD5=[0e5bfd9b7e4f24403842a8e2bc814041]
entity HTML1--><g id="elem_HTML1"><ellipse cx="263" cy="148" fill="#F1F1F1" rx="8" ry="8" style="stroke:#181818;stroke-width:0.5;"/><text fill="#000000" font-family="sans-serif" font-size="14" lengthAdjust="spacing" textLength="38" x="244" y="179.9659">HTML</text></g><!--MD5=[89a2515e4eb5393a4cd2fc0ab8629966]
entity HTML2--><g id="elem_HTML2"><ellipse cx="447" cy="148" fill="#F1F1F1" rx="8" ry="8" style="stroke:#181818;stroke-width:0.5;"/><text fill="#000000" font-family="sans-serif" font-size="14" lengthAdjust="spacing" textLength="38" x="428" y="179.9659">HTML</text></g><!--MD5=[c470d76c68afda2f5e9525cd4f85a320]
entity JSON--><g id="elem_JSON"><ellipse cx="616" cy="148" fill="#F1F1F1" rx="8" ry="8" style="stroke:#181818;stroke-width:0.5;"/><text fill="#000000" font-family="sans-serif" font-size="14" lengthAdjust="spacing" textLength="34" x="599" y="179.9659">JSON</text></g><!--MD5=[ab60d5784cd390629253e25c4550914f]
reverse link POSTS2 to F--><g id="link_POSTS2_F"><path d="M70.33,395.83 C65.63,414.87 64.99,449.4 68.42,472.65 " fill="none" id="POSTS2-backto-F" style="stroke:#181818;stroke-width:1.0;stroke-dasharray:7.0,7.0;"/><polygon fill="#181818" points="72.01,391.23,65.6028,398.7098,70.5798,396.0211,73.2686,400.9981,72.01,391.23" style="stroke:#181818;stroke-width:1.0;"/></g><!--MD5=[795da2b17aa663cbaa975d56b7f1c5e9]
link F to POSTS2--><g id="link_F_POSTS2"><path d="M90.21,472.65 C94.23,446.89 92.96,407.26 86.41,390.23 " fill="none" id="F-POSTS2" style="stroke:#181818;stroke-width:1.0;"/></g><!--MD5=[8e7aeb2ae66566e39ae8e9439af5a647]
link SB to POSTS2--><g id="link_SB_POSTS2"><path d="M68.44,289.22 C64.63,314.9 65.8,354.47 71.95,371.61 " fill="none" id="SB-POSTS2" style="stroke:#181818;stroke-width:1.0;"/></g><!--MD5=[8e7aeb2ae66566e39ae8e9439af5a647]
link SB to POSTS2--><g id="link_SB_POSTS2"><path d="M90.19,289.22 C93.83,312.39 93.17,346.88 88.22,365.98 " fill="none" id="SB-to-POSTS2" style="stroke:#181818;stroke-width:1.0;stroke-dasharray:7.0,7.0;"/><polygon fill="#181818" points="86.47,370.61,92.9648,363.2061,87.9565,365.8361,85.3265,360.8277,86.47,370.61" style="stroke:#181818;stroke-width:1.0;"/></g><!--MD5=[5f78e16f000bf04461b590bd78d88be3]
reverse link CONFIG to SB--><g id="link_CONFIG_SB"><path d="M119.7,162.2 C112.08,181.16 97.92,216.41 88.47,239.92 " fill="none" id="CONFIG-backto-SB" style="stroke:#181818;stroke-width:1.0;stroke-dasharray:7.0,7.0;"/><polygon fill="#181818" points="121.84,157.87,114.7836,164.7407,119.983,162.5124,122.2114,167.7119,121.84,157.87" style="stroke:#181818;stroke-width:1.0;"/></g><!--MD5=[971749c0e9260099978750508efe3049]
link API to POSTS1--><g id="link_API_POSTS1"><path d="M592.17,289.22 C566.12,315.16 525.83,355.28 508.91,372.13 " fill="none" id="API-POSTS1" style="stroke:#181818;stroke-width:1.0;"/></g><!--MD5=[922f2f55b040c48dcab6e59cbfe2070c]
reverse link SB to POSTS1--><g id="link_SB_POSTS1"><path d="M156.75,286.6 C264.15,315.74 449.49,366.02 492.09,377.58 " fill="none" id="SB-backto-POSTS1" style="stroke:#181818;stroke-width:1.0;stroke-dasharray:7.0,7.0;"/><polygon fill="#181818" points="152.06,285.05,159.6935,291.2733,156.8845,286.3632,161.7946,283.5541,152.06,285.05" style="stroke:#181818;stroke-width:1.0;"/></g><!--MD5=[454e0527fe091371a35e3317e9a61684]
reverse link JSON to API--><g id="link_JSON_API"><path d="M616,162.7 C616,181.77 616,216.61 616,239.92 " fill="none" id="JSON-backto-API" style="stroke:#181818;stroke-width:1.0;stroke-dasharray:7.0,7.0;"/><polygon fill="#181818" points="616,157.87,612,166.87,616,162.87,620,166.87,616,157.87" style="stroke:#181818;stroke-width:1.0;"/></g><!--MD5=[b20f4d9731e992b044d72e1292bc699f]
link TW to JSON--><g id="link_TW_JSON"><path d="M616,56.22 C616,82.16 616,122.28 616,139.13 " fill="none" id="TW-JSON" style="stroke:#181818;stroke-width:1.0;"/></g><!--MD5=[6d729e190b3d7b55ba2dc8c757951176]
link FA to CONFIG--><g id="link_FA_CONFIG"><path d="M179.7,56.22 C164.07,82.16 139.9,122.28 129.74,139.13 " fill="none" id="FA-CONFIG" style="stroke:#181818;stroke-width:1.0;"/></g><!--MD5=[119a3d0554052e6640e98ed47fa15dfe]
link SB to POST--><g id="link_SB_POST"><path d="M124.64,289.36 C177.79,317.15 261.8,361.07 289.11,375.35 " fill="none" id="SB-POST" style="stroke:#181818;stroke-width:1.0;"/></g><!--MD5=[6c1e7c620867e5bf7a037c36fe50e0cf]
link FC to POST--><g id="link_FC_POST"><path d="M416.13,289.22 C383.98,313.93 335.09,351.5 311.57,369.57 " fill="none" id="FC-to-POST" style="stroke:#181818;stroke-width:1.0;stroke-dasharray:7.0,7.0;"/><polygon fill="#181818" points="307.95,373.12,317.5229,370.8048,311.9137,370.0721,312.6463,364.4629,307.95,373.12" style="stroke:#181818;stroke-width:1.0;"/></g><!--MD5=[e7430bc2d96f7dd8979a766371490da5]
link NC to HTML2--><g id="link_NC_HTML2"><path d="M447,56.22 C447,79.53 447,114.28 447,133.31 " fill="none" id="NC-to-HTML2" style="stroke:#181818;stroke-width:1.0;stroke-dasharray:7.0,7.0;"/><polygon fill="#181818" points="447,138.13,451,129.13,447,133.13,443,129.13,447,138.13" style="stroke:#181818;stroke-width:1.0;"/></g><!--MD5=[2c2797f32598cfa8b649fac8fb931387]
link HTML2 to FC--><g id="link_HTML2_FC"><path d="M447,156.87 C447,173.75 447,213.98 447,239.92 " fill="none" id="HTML2-FC" style="stroke:#181818;stroke-width:1.0;"/></g><!--MD5=[74194ecb0368a04eb44e11a39f0d4155]
reverse link HTML1 to NA--><g id="link_HTML1_NA"><path d="M263,162.7 C263,181.77 263,216.61 263,239.92 " fill="none" id="HTML1-backto-NA" style="stroke:#181818;stroke-width:1.0;stroke-dasharray:7.0,7.0;"/><polygon fill="#181818" points="263,157.87,259,166.87,263,162.87,267,166.87,263,157.87" style="stroke:#181818;stroke-width:1.0;"/></g><!--MD5=[dfd5b06072edc9fa2c03203eee154133]
link FA to HTML1--><g id="link_FA_HTML1"><path d="M208.3,56.22 C223.93,82.16 248.1,122.28 258.26,139.13 " fill="none" id="FA-HTML1" style="stroke:#181818;stroke-width:1.0;"/></g><!--MD5=[e6aeef03b61f8baecd2d4cea92295b58]
@startuml component
[Server backend] as SB
[API Receiver] as API
[Filter] as F
[Navigator Client] as NC
[Frontend Admin] as FA
[Frontend Client] as FC
[Navigator Admin] as NA
[Twitter API] as TW
() "Post" as POST
() "Post" as POSTS1
() "Post" as POSTS2
() "Config" as CONFIG
() "HTML" as HTML1
() "HTML" as HTML2
() "JSON" as JSON

POSTS2 <.. F
F - - POSTS2
SB - - POSTS2
SB ..> POSTS2
CONFIG <.. SB
API - - POSTS1
SB <.. POSTS1
JSON <.. API
TW - - JSON
FA - - CONFIG
SB - - POST
FC ..> POST


NC ..> HTML2
HTML2 - - FC
HTML1 <.. NA 
FA - - HTML1



@enduml

PlantUML version 1.2022.7(Mon Aug 22 19:01:30 CEST 2022)
(GPL source distribution)
Java Runtime: OpenJDK Runtime Environment
JVM: OpenJDK 64-Bit Server VM
Default Encoding: UTF-8
Language: en
Country: US
--></g></svg>