<?xml version="1.0" encoding="UTF-8" standalone="no"?><svg xmlns="http://www.w3.org/2000/svg" xmlns:xlink="http://www.w3.org/1999/xlink" contentStyleType="text/css" height="534px" preserveAspectRatio="none" style="width:488px;height:534px;background:#FFFFFF;" version="1.1" viewBox="0 0 488 534" width="488px" zoomAndPan="magnify"><defs/><g><!--cluster srv--><g id="cluster_srv"><polygon fill="none" points="16,198,26,188,471,188,471,507,461,517,16,517,16,198" style="stroke:#181818;stroke-width:1.0;"/><line style="stroke:#181818;stroke-width:1.0;" x1="461" x2="471" y1="198" y2="188"/><line style="stroke:#181818;stroke-width:1.0;" x1="16" x2="461" y1="198" y2="198"/><line style="stroke:#181818;stroke-width:1.0;" x1="461" x2="461" y1="198" y2="517"/><text fill="#000000" font-family="sans-serif" font-size="14" font-style="italic" lengthAdjust="spacing" textLength="65" x="207" y="213.9951">«device»</text><text fill="#000000" font-family="sans-serif" font-size="14" font-weight="bold" lengthAdjust="spacing" textLength="50" x="214.5" y="230.292">server</text></g><!--cluster cmp--><g id="cluster_cmp"><polygon fill="none" points="40,262,50,252,447,252,447,483,437,493,40,493,40,262" style="stroke:#181818;stroke-width:1.0;"/><line style="stroke:#181818;stroke-width:1.0;" x1="437" x2="447" y1="262" y2="252"/><line style="stroke:#181818;stroke-width:1.0;" x1="40" x2="437" y1="262" y2="262"/><line style="stroke:#181818;stroke-width:1.0;" x1="437" x2="437" y1="262" y2="493"/><text fill="#000000" font-family="sans-serif" font-size="14" font-style="italic" lengthAdjust="spacing" textLength="67" x="206" y="277.9951">«docker»</text><text fill="#000000" font-family="sans-serif" font-size="14" font-weight="bold" lengthAdjust="spacing" textLength="147" x="166" y="294.292">server application</text></g><!--cluster rpi--><g id="cluster_rpi"><polygon fill="none" points="267,16,277,6,445,6,445,114,435,124,267,124,267,16" style="stroke:#181818;stroke-width:1.0;"/><line style="stroke:#181818;stroke-width:1.0;" x1="435" x2="445" y1="16" y2="6"/><line style="stroke:#181818;stroke-width:1.0;" x1="267" x2="435" y1="16" y2="16"/><line style="stroke:#181818;stroke-width:1.0;" x1="435" x2="435" y1="16" y2="124"/><text fill="#000000" font-family="sans-serif" font-size="14" font-style="italic" lengthAdjust="spacing" textLength="65" x="319.5" y="31.9951">«device»</text><text fill="#000000" font-family="sans-serif" font-size="14" font-weight="bold" lengthAdjust="spacing" textLength="102" x="301" y="48.292">Raspberry Pi</text></g><!--entity bck--><g id="elem_bck"><rect fill="#F1F1F1" height="46.2969" rx="2.5" ry="2.5" style="stroke:#181818;stroke-width:0.5;" width="102" x="56" y="308"/><rect fill="#F1F1F1" height="10" style="stroke:#181818;stroke-width:0.5;" width="15" x="138" y="313"/><rect fill="#F1F1F1" height="2" style="stroke:#181818;stroke-width:0.5;" width="4" x="136" y="315"/><rect fill="#F1F1F1" height="2" style="stroke:#181818;stroke-width:0.5;" width="4" x="136" y="319"/><text fill="#000000" font-family="sans-serif" font-size="14" lengthAdjust="spacing" textLength="62" x="71" y="340.9951">backend</text></g><!--entity cfr--><g id="elem_cfr"><rect fill="#F1F1F1" height="46.2969" rx="2.5" ry="2.5" style="stroke:#181818;stroke-width:0.5;" width="149" x="281.5" y="308"/><rect fill="#F1F1F1" height="10" style="stroke:#181818;stroke-width:0.5;" width="15" x="410.5" y="313"/><rect fill="#F1F1F1" height="2" style="stroke:#181818;stroke-width:0.5;" width="4" x="408.5" y="315"/><rect fill="#F1F1F1" height="2" style="stroke:#181818;stroke-width:0.5;" width="4" x="408.5" y="319"/><text fill="#000000" font-family="sans-serif" font-size="14" lengthAdjust="spacing" textLength="109" x="296.5" y="340.9951">client frontend</text></g><!--entity afr--><g id="elem_afr"><rect fill="#F1F1F1" height="46.2969" rx="2.5" ry="2.5" style="stroke:#181818;stroke-width:0.5;" width="152" x="56" y="431"/><rect fill="#F1F1F1" height="10" style="stroke:#181818;stroke-width:0.5;" width="15" x="188" y="436"/><rect fill="#F1F1F1" height="2" style="stroke:#181818;stroke-width:0.5;" width="4" x="186" y="438"/><rect fill="#F1F1F1" height="2" style="stroke:#181818;stroke-width:0.5;" width="4" x="186" y="442"/><text fill="#000000" font-family="sans-serif" font-size="14" lengthAdjust="spacing" textLength="112" x="71" y="463.9951">admin frontend</text></g><!--entity flt--><g id="elem_flt"><rect fill="#F1F1F1" height="46.2969" rx="2.5" ry="2.5" style="stroke:#181818;stroke-width:0.5;" width="76" x="243" y="431"/><rect fill="#F1F1F1" height="10" style="stroke:#181818;stroke-width:0.5;" width="15" x="299" y="436"/><rect fill="#F1F1F1" height="2" style="stroke:#181818;stroke-width:0.5;" width="4" x="297" y="438"/><rect fill="#F1F1F1" height="2" style="stroke:#181818;stroke-width:0.5;" width="4" x="297" y="442"/><text fill="#000000" font-family="sans-serif" font-size="14" lengthAdjust="spacing" textLength="36" x="258" y="463.9951">filter</text></g><!--entity wb--><g id="elem_wb"><rect fill="#F1F1F1" height="46.2969" rx="2.5" ry="2.5" style="stroke:#181818;stroke-width:0.5;" width="132" x="290" y="62"/><rect fill="#F1F1F1" height="10" style="stroke:#181818;stroke-width:0.5;" width="15" x="402" y="67"/><rect fill="#F1F1F1" height="2" style="stroke:#181818;stroke-width:0.5;" width="4" x="400" y="69"/><rect fill="#F1F1F1" height="2" style="stroke:#181818;stroke-width:0.5;" width="4" x="400" y="73"/><text fill="#000000" font-family="sans-serif" font-size="14" lengthAdjust="spacing" textLength="92" x="305" y="94.9951">web browser</text></g><!--link bck to afr--><g id="link_bck_afr"><path d="M112.626,359.232 C116.733,379.106 122.275,405.931 126.38,425.798 " fill="none" id="bck-afr" style="stroke:#181818;stroke-width:1.0;"/><rect fill="#FFFFFF" height="10" style="stroke:#181818;stroke-width:1.5;" width="10" x="106.585" y="349.193"/><rect fill="#FFFFFF" height="10" style="stroke:#181818;stroke-width:1.5;" width="10" x="122.444" y="425.947"/><text fill="#000000" font-family="sans-serif" font-size="13" lengthAdjust="spacing" textLength="87" x="122" y="397.0669">«Websocket»</text></g><!--link bck to cfr--><g id="link_bck_cfr"><path d="M163.355,331 C196.564,331 239.122,331 275.788,331 " fill="none" id="bck-cfr" style="stroke:#181818;stroke-width:1.0;"/><rect fill="#FFFFFF" height="10" style="stroke:#181818;stroke-width:1.5;" width="10" x="153.291" y="326"/><rect fill="#FFFFFF" height="10" style="stroke:#181818;stroke-width:1.5;" width="10" x="276.153" y="326"/><text fill="#000000" font-family="sans-serif" font-size="13" lengthAdjust="spacing" textLength="87" x="176.25" y="324.0669">«Websocket»</text></g><!--link wb to cfr--><g id="link_wb_cfr"><path d="M356,113.19 C356,160.058 356,255.544 356,302.574 " fill="none" id="wb-cfr" style="stroke:#181818;stroke-width:1.0;"/><rect fill="#FFFFFF" height="10" style="stroke:#181818;stroke-width:1.5;" width="10" x="351" y="103.084"/><rect fill="#FFFFFF" height="10" style="stroke:#181818;stroke-width:1.5;" width="10" x="351" y="302.79"/><text fill="#000000" font-family="sans-serif" font-size="13" lengthAdjust="spacing" textLength="24" x="369.5" y="153.0669">1..n</text><text fill="#000000" font-family="sans-serif" font-size="13" lengthAdjust="spacing" textLength="49" x="357" y="168.1997">«HTTP»</text></g><!--link bck to flt--><g id="link_bck_flt"><path d="M162.882,353.035 C181.306,361.28 201.331,371.732 218,384 C234.339,396.025 249.749,412.768 261.239,426.75 " fill="none" id="bck-flt" style="stroke:#181818;stroke-width:1.0;"/><rect fill="#FFFFFF" height="10" style="stroke:#181818;stroke-width:1.5;" width="10" x="153.235" y="345.987"/><rect fill="#FFFFFF" height="10" style="stroke:#181818;stroke-width:1.5;" width="10" x="259.675" y="425.992"/><text fill="#000000" font-family="sans-serif" font-size="13" lengthAdjust="spacing" textLength="87" x="238" y="397.0669">«Websocket»</text></g><!--SRC=[RP0n2y8m48Nt_eeZdHLS9NHs515SN9Bq0i7s4YwXHSJ_Rj9MgCKfm_lUotj7laKG4Nb05Y1bYuCps3IW8aGUu5K1q8e15KBdZ4hEqyHxyq2UUTE7YGSmlW-Ua188hJ90hIY0De-jR3fNNikUqXSpbc7BgRPtz8iforlAkYwL7LcrNShgktfNrTp_ecBGoFo4izikvU2cvgke4JLezcDSyaPTel82g7Uxkdn-126alA6EvGQfQOHOzBfC-2UFUdOlyc6_fpj9URfUpojx1dBxF_uF]--></g></svg>