<?xml version="1.0" encoding="UTF-8" standalone="no"?><svg xmlns="http://www.w3.org/2000/svg" xmlns:xlink="http://www.w3.org/1999/xlink" contentStyleType="text/css" height="402px" preserveAspectRatio="none" style="width:854px;height:402px;background:#FFFFFF;" version="1.1" viewBox="0 0 854 402" width="854px" zoomAndPan="magnify"><defs/><g><!--cluster srv--><g id="cluster_srv"><polygon fill="none" points="16,16,26,6,490,6,490,375,480,385,16,385,16,16" style="stroke:#181818;stroke-width:1.0;"/><line style="stroke:#181818;stroke-width:1.0;" x1="480" x2="490" y1="16" y2="6"/><line style="stroke:#181818;stroke-width:1.0;" x1="16" x2="480" y1="16" y2="16"/><line style="stroke:#181818;stroke-width:1.0;" x1="480" x2="480" y1="16" y2="385"/><text fill="#000000" font-family="sans-serif" font-size="14" font-style="italic" lengthAdjust="spacing" textLength="65" x="216.5" y="31.9951">«device»</text><text fill="#000000" font-family="sans-serif" font-size="14" font-weight="bold" lengthAdjust="spacing" textLength="50" x="224" y="48.292">server</text></g><!--cluster cmp--><g id="cluster_cmp"><polygon fill="none" points="48,88,58,78,450,78,450,343,440,353,48,353,48,88" style="stroke:#181818;stroke-width:1.0;"/><line style="stroke:#181818;stroke-width:1.0;" x1="440" x2="450" y1="88" y2="78"/><line style="stroke:#181818;stroke-width:1.0;" x1="48" x2="440" y1="88" y2="88"/><line style="stroke:#181818;stroke-width:1.0;" x1="440" x2="440" y1="88" y2="353"/><text fill="#000000" font-family="sans-serif" font-size="14" font-style="italic" lengthAdjust="spacing" textLength="136" x="177" y="103.9951">«docker compose»</text><text fill="#000000" font-family="sans-serif" font-size="14" font-weight="bold" lengthAdjust="spacing" textLength="147" x="171.5" y="120.292">server application</text></g><!--entity bck--><g id="elem_bck"><rect fill="#F1F1F1" height="62.5938" rx="2.5" ry="2.5" style="stroke:#181818;stroke-width:0.5;" width="107" x="64.5" y="134"/><rect fill="#F1F1F1" height="10" style="stroke:#181818;stroke-width:0.5;" width="15" x="151.5" y="139"/><rect fill="#F1F1F1" height="2" style="stroke:#181818;stroke-width:0.5;" width="4" x="149.5" y="141"/><rect fill="#F1F1F1" height="2" style="stroke:#181818;stroke-width:0.5;" width="4" x="149.5" y="145"/><text fill="#000000" font-family="sans-serif" font-size="14" font-style="italic" lengthAdjust="spacing" textLength="67" x="79.5" y="166.9951">«docker»</text><text fill="#000000" font-family="sans-serif" font-size="14" lengthAdjust="spacing" textLength="62" x="82" y="183.292">backend</text></g><!--entity cfr--><g id="elem_cfr"><rect fill="#F1F1F1" height="62.5938" rx="2.5" ry="2.5" style="stroke:#181818;stroke-width:0.5;" width="149" x="284.5" y="134"/><rect fill="#F1F1F1" height="10" style="stroke:#181818;stroke-width:0.5;" width="15" x="413.5" y="139"/><rect fill="#F1F1F1" height="2" style="stroke:#181818;stroke-width:0.5;" width="4" x="411.5" y="141"/><rect fill="#F1F1F1" height="2" style="stroke:#181818;stroke-width:0.5;" width="4" x="411.5" y="145"/><text fill="#000000" font-family="sans-serif" font-size="14" font-style="italic" lengthAdjust="spacing" textLength="67" x="320.5" y="166.9951">«docker»</text><text fill="#000000" font-family="sans-serif" font-size="14" lengthAdjust="spacing" textLength="109" x="299.5" y="183.292">client frontend</text></g><!--entity afr--><g id="elem_afr"><rect fill="#F1F1F1" height="62.5938" rx="2.5" ry="2.5" style="stroke:#181818;stroke-width:0.5;" width="152" x="64" y="274"/><rect fill="#F1F1F1" height="10" style="stroke:#181818;stroke-width:0.5;" width="15" x="196" y="279"/><rect fill="#F1F1F1" height="2" style="stroke:#181818;stroke-width:0.5;" width="4" x="194" y="281"/><rect fill="#F1F1F1" height="2" style="stroke:#181818;stroke-width:0.5;" width="4" x="194" y="285"/><text fill="#000000" font-family="sans-serif" font-size="14" font-style="italic" lengthAdjust="spacing" textLength="67" x="101.5" y="306.9951">«docker»</text><text fill="#000000" font-family="sans-serif" font-size="14" lengthAdjust="spacing" textLength="112" x="79" y="323.292">admin frontend</text></g><!--entity rpi--><g id="elem_rpi"><polygon fill="#F1F1F1" points="514.5,284,524.5,274,645.5,274,645.5,326.5938,635.5,336.5938,514.5,336.5938,514.5,284" style="stroke:#181818;stroke-width:0.5;"/><line style="stroke:#181818;stroke-width:0.5;" x1="635.5" x2="645.5" y1="284" y2="274"/><line style="stroke:#181818;stroke-width:0.5;" x1="514.5" x2="635.5" y1="284" y2="284"/><line style="stroke:#181818;stroke-width:0.5;" x1="635.5" x2="635.5" y1="284" y2="336.5938"/><text fill="#000000" font-family="sans-serif" font-size="14" font-style="italic" lengthAdjust="spacing" textLength="65" x="542.5" y="306.9951">«device»</text><text fill="#000000" font-family="sans-serif" font-size="14" lengthAdjust="spacing" textLength="91" x="529.5" y="323.292">Raspberry Pi</text></g><!--entity api--><g id="elem_api"><path d="M689.8153,290.9578 C693.5759,283.8974 698.9968,284.9049 703.4051,290.2483 C707.5611,284.7989 711.6282,284.8127 715.4866,290.5691 C718.7813,284.0448 722.8366,284.2062 727.0234,289.7138 C731.4508,282.5138 735.513,282.7865 740.3461,289.3203 C743.9521,283.985 748.24,284.1964 751.9188,289.2391 C754.5164,282.956 760.1119,282.6406 763.4138,288.5766 C768.2184,281.4558 772.6491,282.1375 777.0091,289.0086 C780.2733,284.0723 785.9245,283.5616 788.2564,289.9357 C792.4,283.9677 797.7035,283.7138 801.8366,289.9474 C804.7803,283.8719 810.087,284.5617 813.4728,289.4793 C817.787,283.9236 821.6149,285.7056 824.6943,290.7824 C829.1392,285.5533 833.9888,285.9998 837.3415,292.0114 C845.854,295.4671 846.9214,300.926 840.9169,307.6918 C847.1737,312.4401 846.4057,318.7685 839.1421,321.8181 C835.997,329.9037 829.6933,330.5612 824.8369,323.4266 C821.3216,328.363 816.3969,327.7994 813.5536,322.6731 C810.608,328.982 806.6354,330.0675 801.7568,324.6111 C797.9407,331.2446 793.6088,330.7775 789.4112,324.9903 C786.6257,332.3811 780.5413,332.5183 776.5172,326.1512 C773.2081,331.4541 768.5517,332.4639 764.9808,326.4173 C760.3489,331.3826 755.2755,331.4592 751.7298,325.1416 C747.8345,331.2173 741.8944,330.6998 738.3783,324.7215 C735.1586,330.3846 730.2773,330.4553 726.7906,324.9998 C721.5204,329.6726 717.6711,328.9181 714.6496,322.5312 C711.1144,328.1011 705.3104,327.7764 702.3668,321.8965 C698.6074,326.5464 694.637,327.0505 690.9621,321.7992 C680.6752,320.6982 676.3951,316.4403 681.8744,306.1713 C676.414,296.755 679.3978,292.0864 689.8153,290.9578 " fill="#F1F1F1" style="stroke:#181818;stroke-width:0.5;"/><text fill="#000000" font-family="sans-serif" font-size="14" lengthAdjust="spacing" textLength="134" x="696" y="310.4951">Social Network API</text></g><!--entity lbr--><g id="elem_lbr"><path d="M600.4747,151.1635 C603.9971,145.282 609.6229,144.6689 612.8728,151.4307 C616.5439,144.9499 620.9652,143.2782 626.2745,149.7335 C629.6687,143.6044 635.1216,144.7319 638.4201,149.8369 C642.3755,144.729 646.1963,145.0729 650.1366,149.8548 C652.5848,144.3348 657.6969,143.7562 661.2936,148.6208 C665.0374,143.875 670.0118,143.786 673.3601,149.0954 C677.2998,143.3864 682.1019,142.3705 686.1917,148.9386 C689.9414,144.2841 694.255,143.2637 697.3774,149.5783 C700.8356,143.4426 707.3376,142.663 711.413,148.8769 C714.9958,142.2722 719.8544,142.0939 723.6645,148.6657 C727.2012,143.4801 732.611,143.1651 735.5049,149.3359 C739.3313,143.915 745.2584,144.7157 747.7084,150.7963 C751.675,146.4948 755.3331,147.428 758.1123,152.1633 C762.8311,146.0139 767.4164,145.649 771.9746,152.3367 C782.1058,151.6699 785.9362,156.2809 781.6877,165.9067 C787.0537,176.2931 781.6734,181.406 771.4823,181.8077 C768.2537,188.5863 764.4412,187.9538 759.7751,183.2768 C755.1579,188.8574 750.6405,187.6511 747.0423,182.1102 C745.0133,188.2606 739.3391,189.2437 735.5428,183.8744 C731.3124,189.8345 726.5509,188.9747 723.1538,183.0088 C720.5349,188.7406 715.6234,190.5605 711.4319,184.583 C708.7009,191.7517 702.4837,191.9678 698.7961,185.4673 C693.842,192.7297 689.6518,191.6878 685.0332,185.1331 C681.9623,190.7212 678.1855,190.0902 674.9537,185.2892 C669.9397,191.9093 665.8984,191.0471 661.5289,184.6259 C657.7604,191.3686 653.2616,190.3422 649.1818,184.9426 C645.6791,189.762 640.7388,189.0243 637.8005,184.2715 C633.2824,189.964 629.7445,189.7223 626.2966,183.2587 C622.3828,189.9663 616.2995,188.2663 613.4256,182.21 C609.6449,188.3274 606.1207,188.1985 602.2016,182.3396 C591.7456,181.9497 586.724,176.2586 590.1667,165.7723 C587.0762,156.735 589.8944,150.5547 600.4747,151.1635 " fill="#F1F1F1" style="stroke:#181818;stroke-width:0.5;"/><text fill="#000000" font-family="sans-serif" font-size="14" lengthAdjust="spacing" textLength="156" x="607" y="170.4951">Learning Behavior API</text></g><!--link srv to api--><g id="link_srv_api"><path d="M490.0588,170.4577 C490.2036,170.5288 490.3502,170.6008 490.4986,170.6737 C490.7954,170.8194 491.0993,170.9687 491.4102,171.1214 C492.0321,171.4268 492.6821,171.746 493.3595,172.0786 C494.7141,172.7439 496.1781,173.4629 497.7448,174.2323 C500.8781,175.7711 504.4224,177.5117 508.3255,179.4285 C523.9375,187.0956 545.2886,197.5811 569.0344,209.2428 C616.526,232.566 673.5965,260.5935 713.491,280.186 " fill="none" id="srv-to-api" style="stroke:#181818;stroke-width:1.0;"/><ellipse cx="718.176" cy="282.487" fill="#FFFFFF" rx="6" ry="6" style="stroke:#181818;stroke-width:1.5;"/><path d="M714.9459,273.023 A10,10 0 0 0 708.712 285.7171" fill="#FFFFFF" style="stroke:#181818;stroke-width:1.5;"/><text fill="#000000" font-family="sans-serif" font-size="13" lengthAdjust="spacing" textLength="73" x="640" y="240.0669">«REST API»</text><text fill="#000000" font-family="sans-serif" font-size="13" lengthAdjust="spacing" textLength="24" x="678.9046" y="271.3315">1..n</text></g><!--link srv to lbr--><g id="link_srv_lbr"><path d="M490.2337,165.5 C491.5323,165.5 492.9694,165.5 494.534,165.5 C500.7923,165.5 509.0909,165.5 518.7274,165.5 C538.0003,165.5 562.6245,165.5 586.981,165.5 " fill="none" id="srv-to-lbr" style="stroke:#181818;stroke-width:1.0;"/><ellipse cx="591.994" cy="165.5" fill="#FFFFFF" rx="6" ry="6" style="stroke:#181818;stroke-width:1.5;"/><path d="M584.9229,158.4289 A10,10 0 0 0 584.9229 172.5711" fill="#FFFFFF" style="stroke:#181818;stroke-width:1.5;"/><text fill="#000000" font-family="sans-serif" font-size="13" lengthAdjust="spacing" textLength="73" x="500.68" y="158.5669">«REST API»</text></g><!--reverse link srv to rpi--><g id="link_srv_rpi"><path d="M490.1532,177.981 C490.229,178.0877 490.3052,178.1951 490.3819,178.3031 C490.5353,178.5191 490.6904,178.7376 490.8473,178.9585 C495.8676,186.0279 502.6636,195.5978 510.2779,206.32 C525.5065,227.7645 544.0085,253.8185 558.125,273.697 " fill="none" id="srv-backto-rpi" style="stroke:#181818;stroke-width:1.0;"/><ellipse cx="490.1532" cy="177.981" fill="#FFFFFF" rx="6" ry="6" style="stroke:#181818;stroke-width:1.5;"/><path d="M488.4821,187.8404 A10,10 0 0 0 500.0125 179.6521" fill="#FFFFFF" style="stroke:#181818;stroke-width:1.5;"/><text fill="#000000" font-family="sans-serif" font-size="13" lengthAdjust="spacing" textLength="49" x="538" y="240.0669">«HTTP»</text><text fill="#000000" font-family="sans-serif" font-size="13" lengthAdjust="spacing" textLength="24" x="527.1383" y="262.7132">1..n</text></g><!--link bck to afr--><g id="link_bck_afr"><path d="M123.67,202.067 C126.942,222.591 131.044,248.319 134.318,268.856 " fill="none" id="bck-afr" style="stroke:#181818;stroke-width:1.0;"/><rect fill="#FFFFFF" height="10" style="stroke:#181818;stroke-width:1.5;" width="10" x="117.883" y="192.127"/><rect fill="#FFFFFF" height="10" style="stroke:#181818;stroke-width:1.5;" width="10" x="130.131" y="268.959"/><text fill="#000000" font-family="sans-serif" font-size="13" lengthAdjust="spacing" textLength="76" x="132" y="240.0669">«Socket.IO»</text></g><!--link bck to cfr--><g id="link_bck_cfr"><path d="M176.91,165.5 C207.646,165.5 245.694,165.5 279.05,165.5 " fill="none" id="bck-cfr" style="stroke:#181818;stroke-width:1.0;"/><rect fill="#FFFFFF" height="10" style="stroke:#181818;stroke-width:1.5;" width="10" x="166.785" y="160.5"/><rect fill="#FFFFFF" height="10" style="stroke:#181818;stroke-width:1.5;" width="10" x="279.361" y="160.5"/><text fill="#000000" font-family="sans-serif" font-size="13" lengthAdjust="spacing" textLength="76" x="190" y="158.5669">«Socket.IO»</text></g><!--SRC=[TP31IiGm48RlUOeXlUWXPRtAig0Wk21Qjds1D4dNq7OIfh4YikzkqeYx5Zq5vl- -9F-WqmRuP6Wsn66xrMQsokns82UOQ8PF1e0N34Zl1wjai0uNtga-JfKRlPk-FJNwnOCyHeC1U2iZYFhiPBPL_PfKWqrdHmx37uRg2DQArAF5VmtPKHHExCHOhdAGasyDqGTKTbsQl6LC3UvD0w-TidA0PnFU7VLmL-tvSjy5ycGaeSKZt9jNELj7FzJG4cDfXK9SRP9p6rywFDHD8k9R_AOiaMSY0X7_3Ip9vbg8zAKKFJPDTVRYug0GeaZjKbgdmg7SlqGpPqLQrIhw0W00]--></g></svg>