<?xml version="1.0" encoding="us-ascii" standalone="no"?><svg xmlns="http://www.w3.org/2000/svg" xmlns:xlink="http://www.w3.org/1999/xlink" contentStyleType="text/css" height="536px" preserveAspectRatio="none" style="width:697px;height:536px;background:#FFFFFF;" version="1.1" viewBox="0 0 697 536" width="697px" zoomAndPan="magnify"><defs/><g><!--cluster srv--><g id="cluster_srv"><polygon fill="none" points="16,198,26,188,680,188,680,509,670,519,16,519,16,198" style="stroke:#181818;stroke-width:1.0;"/><line style="stroke:#181818;stroke-width:1.0;" x1="670" x2="680" y1="198" y2="188"/><line style="stroke:#181818;stroke-width:1.0;" x1="16" x2="670" y1="198" y2="198"/><line style="stroke:#181818;stroke-width:1.0;" x1="670" x2="670" y1="198" y2="519"/><text fill="#000000" font-family="sans-serif" font-size="14" font-style="italic" lengthAdjust="spacing" textLength="65" x="311.5" y="213.9951">&#171;device&#187;</text><text fill="#000000" font-family="sans-serif" font-size="14" font-weight="bold" lengthAdjust="spacing" textLength="50" x="319" y="230.292">server</text></g><!--cluster cmp1--><g id="cluster_cmp1"><polygon fill="none" points="433,262,443,252,656,252,656,485,646,495,433,495,433,262" style="stroke:#181818;stroke-width:1.0;"/><line style="stroke:#181818;stroke-width:1.0;" x1="646" x2="656" y1="262" y2="252"/><line style="stroke:#181818;stroke-width:1.0;" x1="433" x2="646" y1="262" y2="262"/><line style="stroke:#181818;stroke-width:1.0;" x1="646" x2="646" y1="262" y2="495"/><text fill="#000000" font-family="sans-serif" font-size="14" font-style="italic" lengthAdjust="spacing" textLength="67" x="507" y="277.9951">&#171;docker&#187;</text><text fill="#000000" font-family="sans-serif" font-size="14" font-weight="bold" lengthAdjust="spacing" textLength="147" x="467" y="294.292">server application</text></g><!--cluster cmp2--><g id="cluster_cmp2"><polygon fill="none" points="40,262,50,252,409,252,409,360,399,370,40,370,40,262" style="stroke:#181818;stroke-width:1.0;"/><line style="stroke:#181818;stroke-width:1.0;" x1="399" x2="409" y1="262" y2="252"/><line style="stroke:#181818;stroke-width:1.0;" x1="40" x2="399" y1="262" y2="262"/><line style="stroke:#181818;stroke-width:1.0;" x1="399" x2="399" y1="262" y2="370"/><text fill="#000000" font-family="sans-serif" font-size="14" font-style="italic" lengthAdjust="spacing" textLength="67" x="187" y="277.9951">&#171;docker&#187;</text><text fill="#000000" font-family="sans-serif" font-size="14" font-weight="bold" lengthAdjust="spacing" textLength="168" x="136.5" y="294.292">frontend application</text></g><!--cluster admindev--><g id="cluster_admindev"><polygon fill="none" points="352,16,362,6,562,6,562,114,552,124,352,124,352,16" style="stroke:#181818;stroke-width:1.0;"/><line style="stroke:#181818;stroke-width:1.0;" x1="552" x2="562" y1="16" y2="6"/><line style="stroke:#181818;stroke-width:1.0;" x1="352" x2="552" y1="16" y2="16"/><line style="stroke:#181818;stroke-width:1.0;" x1="552" x2="552" y1="16" y2="124"/><text fill="#000000" font-family="sans-serif" font-size="14" font-style="italic" lengthAdjust="spacing" textLength="65" x="420.5" y="31.9951">&#171;device&#187;</text><text fill="#000000" font-family="sans-serif" font-size="14" font-weight="bold" lengthAdjust="spacing" textLength="134" x="386" y="48.292">Admin computer</text></g><!--cluster rpi--><g id="cluster_rpi"><polygon fill="none" points="76,16,86,6,254,6,254,114,244,124,76,124,76,16" style="stroke:#181818;stroke-width:1.0;"/><line style="stroke:#181818;stroke-width:1.0;" x1="244" x2="254" y1="16" y2="6"/><line style="stroke:#181818;stroke-width:1.0;" x1="76" x2="244" y1="16" y2="16"/><line style="stroke:#181818;stroke-width:1.0;" x1="244" x2="244" y1="16" y2="124"/><text fill="#000000" font-family="sans-serif" font-size="14" font-style="italic" lengthAdjust="spacing" textLength="65" x="128.5" y="31.9951">&#171;device&#187;</text><text fill="#000000" font-family="sans-serif" font-size="14" font-weight="bold" lengthAdjust="spacing" textLength="102" x="110" y="48.292">Raspberry Pi</text></g><!--entity bck--><g id="elem_bck"><rect fill="#F1F1F1" height="46.2969" rx="2.5" ry="2.5" style="stroke:#181818;stroke-width:0.5;" width="102" x="449" y="308"/><rect fill="#F1F1F1" height="10" style="stroke:#181818;stroke-width:0.5;" width="15" x="531" y="313"/><rect fill="#F1F1F1" height="2" style="stroke:#181818;stroke-width:0.5;" width="4" x="529" y="315"/><rect fill="#F1F1F1" height="2" style="stroke:#181818;stroke-width:0.5;" width="4" x="529" y="319"/><text fill="#000000" font-family="sans-serif" font-size="14" lengthAdjust="spacing" textLength="62" x="464" y="340.9951">backend</text></g><!--entity flt--><g id="elem_flt"><rect fill="#F1F1F1" height="46.2969" rx="2.5" ry="2.5" style="stroke:#181818;stroke-width:0.5;" width="76" x="449" y="433"/><rect fill="#F1F1F1" height="10" style="stroke:#181818;stroke-width:0.5;" width="15" x="505" y="438"/><rect fill="#F1F1F1" height="2" style="stroke:#181818;stroke-width:0.5;" width="4" x="503" y="440"/><rect fill="#F1F1F1" height="2" style="stroke:#181818;stroke-width:0.5;" width="4" x="503" y="444"/><text fill="#000000" font-family="sans-serif" font-size="14" lengthAdjust="spacing" textLength="36" x="464" y="465.9951">filter</text></g><!--entity cfr--><g id="elem_cfr"><rect fill="#F1F1F1" height="46.2969" rx="2.5" ry="2.5" style="stroke:#181818;stroke-width:0.5;" width="149" x="56.5" y="308"/><rect fill="#F1F1F1" height="10" style="stroke:#181818;stroke-width:0.5;" width="15" x="185.5" y="313"/><rect fill="#F1F1F1" height="2" style="stroke:#181818;stroke-width:0.5;" width="4" x="183.5" y="315"/><rect fill="#F1F1F1" height="2" style="stroke:#181818;stroke-width:0.5;" width="4" x="183.5" y="319"/><text fill="#000000" font-family="sans-serif" font-size="14" lengthAdjust="spacing" textLength="109" x="71.5" y="340.9951">client frontend</text></g><!--entity afr--><g id="elem_afr"><rect fill="#F1F1F1" height="46.2969" rx="2.5" ry="2.5" style="stroke:#181818;stroke-width:0.5;" width="152" x="241" y="308"/><rect fill="#F1F1F1" height="10" style="stroke:#181818;stroke-width:0.5;" width="15" x="373" y="313"/><rect fill="#F1F1F1" height="2" style="stroke:#181818;stroke-width:0.5;" width="4" x="371" y="315"/><rect fill="#F1F1F1" height="2" style="stroke:#181818;stroke-width:0.5;" width="4" x="371" y="319"/><text fill="#000000" font-family="sans-serif" font-size="14" lengthAdjust="spacing" textLength="112" x="256" y="340.9951">admin frontend</text></g><!--entity wb2--><g id="elem_wb2"><rect fill="#F1F1F1" height="46.2969" rx="2.5" ry="2.5" style="stroke:#181818;stroke-width:0.5;" width="132" x="377" y="62"/><rect fill="#F1F1F1" height="10" style="stroke:#181818;stroke-width:0.5;" width="15" x="489" y="67"/><rect fill="#F1F1F1" height="2" style="stroke:#181818;stroke-width:0.5;" width="4" x="487" y="69"/><rect fill="#F1F1F1" height="2" style="stroke:#181818;stroke-width:0.5;" width="4" x="487" y="73"/><text fill="#000000" font-family="sans-serif" font-size="14" lengthAdjust="spacing" textLength="92" x="392" y="94.9951">web browser</text></g><!--entity wb--><g id="elem_wb"><rect fill="#F1F1F1" height="46.2969" rx="2.5" ry="2.5" style="stroke:#181818;stroke-width:0.5;" width="132" x="99" y="62"/><rect fill="#F1F1F1" height="10" style="stroke:#181818;stroke-width:0.5;" width="15" x="211" y="67"/><rect fill="#F1F1F1" height="2" style="stroke:#181818;stroke-width:0.5;" width="4" x="209" y="69"/><rect fill="#F1F1F1" height="2" style="stroke:#181818;stroke-width:0.5;" width="4" x="209" y="73"/><text fill="#000000" font-family="sans-serif" font-size="14" lengthAdjust="spacing" textLength="92" x="114" y="94.9951">web browser</text></g><!--link wb2 to afr--><g id="link_wb2_afr"><path d="M418.659,112.074 C411.448,120.583 403.909,130.337 398,140 C364.698,194.456 338.545,265.046 325.701,303.003 " fill="none" id="wb2-afr" style="stroke:#181818;stroke-width:1.0;"/><rect fill="#FFFFFF" height="10" style="stroke:#181818;stroke-width:1.5;" width="10" x="417.164" y="103.002"/><rect fill="#FFFFFF" height="10" style="stroke:#181818;stroke-width:1.5;" width="10" x="319.052" y="302.914"/><text fill="#000000" font-family="sans-serif" font-size="13" lengthAdjust="spacing" textLength="49" x="399" y="160.5669">&#171;HTTP&#187;</text></g><!--link wb to cfr--><g id="link_wb_cfr"><path d="M161.211,113.19 C154.68,160.058 141.375,255.544 134.822,302.574 " fill="none" id="wb-cfr" style="stroke:#181818;stroke-width:1.0;"/><rect fill="#FFFFFF" height="10" style="stroke:#181818;stroke-width:1.5;" width="10" x="156.923" y="103.084"/><rect fill="#FFFFFF" height="10" style="stroke:#181818;stroke-width:1.5;" width="10" x="129.095" y="302.79"/><text fill="#000000" font-family="sans-serif" font-size="13" lengthAdjust="spacing" textLength="49" x="158" y="160.5669">&#171;HTTP&#187;</text></g><!--link wb to bck--><g id="link_wb_bck"><path d="M191.354,111.632 C214.117,131.996 248.949,159.121 285,172 C311.003,181.29 385.387,165.686 409,180 C454.68,207.691 480.48,267.838 492.2,302.977 " fill="none" id="wb-bck" style="stroke:#181818;stroke-width:1.0;"/><rect fill="#FFFFFF" height="10" style="stroke:#181818;stroke-width:1.5;" width="10" x="182.526" y="103.17"/><rect fill="#FFFFFF" height="10" style="stroke:#181818;stroke-width:1.5;" width="10" x="488.828" y="302.973"/><text fill="#000000" font-family="sans-serif" font-size="13" lengthAdjust="spacing" textLength="24" x="317.5" y="153.0669">1..n</text><text fill="#000000" font-family="sans-serif" font-size="13" lengthAdjust="spacing" textLength="87" x="286" y="168.1997">&#171;Websocket&#187;</text></g><!--link wb2 to bck--><g id="link_wb2_bck"><path d="M450.234,113.222 C452.46,121.778 454.881,131.271 457,140 C470.99,197.639 485.992,265.474 494.054,302.485 " fill="none" id="wb2-bck" style="stroke:#181818;stroke-width:1.0;"/><rect fill="#FFFFFF" height="10" style="stroke:#181818;stroke-width:1.5;" width="10" x="443.877" y="103.03"/><rect fill="#FFFFFF" height="10" style="stroke:#181818;stroke-width:1.5;" width="10" x="490.192" y="302.717"/><text fill="#000000" font-family="sans-serif" font-size="13" lengthAdjust="spacing" textLength="24" x="497.5" y="153.0669">1..n</text><text fill="#000000" font-family="sans-serif" font-size="13" lengthAdjust="spacing" textLength="87" x="466" y="168.1997">&#171;Websocket&#187;</text></g><!--link bck to flt--><g id="link_bck_flt"><path d="M497.102,359.423 C494.945,379.832 492.014,407.557 489.865,427.89 " fill="none" id="bck-flt" style="stroke:#181818;stroke-width:1.0;"/><rect fill="#FFFFFF" height="10" style="stroke:#181818;stroke-width:1.5;" width="10" x="492.646" y="349.274"/><rect fill="#FFFFFF" height="10" style="stroke:#181818;stroke-width:1.5;" width="10" x="484.337" y="427.891"/><text fill="#000000" font-family="sans-serif" font-size="13" lengthAdjust="spacing" textLength="73" x="495" y="399.0669">&#171;REST API&#187;</text></g><!--SRC=[ZP6nQiCm48PtFyKXpmd4On2638LsCwcXInT9ba74beIaseJIT- -TdBQfKqWdWx_l_libMTTfO567IGS6d7TwCahNDOW8CKpmNW3OAmU4zuDH8Xbdi-_KIOV5LwFVvG40vKRlhBO9c1Hes8wH8TLfZNip95gDj1yIqe_YUsKVd4quUsTfTRjK3OQ-Nm4vNlK1rfxeHcD_Qw8Fr0AWm2PBZqEsQEmjtLvJpi0VkSLLzgmboE3cU3dUBAkVoAE8NkeGpj2OTM3mvduMHHKO2ULcKrBfFJ36-MFRDdND628a9HtwBu04tuB8RhkrhvRp5oqZNMkwIDK_B8IBXI-tR3a-FBTmQ9u8Vm80]--></g></svg>