<?xml version="1.0" encoding="us-ascii" standalone="no"?><svg xmlns="http://www.w3.org/2000/svg" xmlns:xlink="http://www.w3.org/1999/xlink" contentStyleType="text/css" height="576px" preserveAspectRatio="none" style="width:697px;height:576px;background:#FFFFFF;" version="1.1" viewBox="0 0 697 576" width="697px" zoomAndPan="magnify"><defs/><g><!--cluster srv--><g id="cluster_srv"><polygon fill="none" points="16,198,26,188,680,188,680,549,670,559,16,559,16,198" style="stroke:#181818;stroke-width:1.0;"/><line style="stroke:#181818;stroke-width:1.0;" x1="670" x2="680" y1="198" y2="188"/><line style="stroke:#181818;stroke-width:1.0;" x1="16" x2="670" y1="198" y2="198"/><line style="stroke:#181818;stroke-width:1.0;" x1="670" x2="670" y1="198" y2="559"/><text fill="#000000" font-family="sans-serif" font-size="14" font-style="italic" lengthAdjust="spacing" textLength="65" x="311.5" y="213.9951">&#171;device&#187;</text><text fill="#000000" font-family="sans-serif" font-size="14" font-weight="bold" lengthAdjust="spacing" textLength="50" x="319" y="230.292">server</text></g><!--cluster cmp1--><g id="cluster_cmp1"><polygon fill="none" points="40,262,50,252,263,252,263,525,253,535,40,535,40,262" style="stroke:#181818;stroke-width:1.0;"/><line style="stroke:#181818;stroke-width:1.0;" x1="253" x2="263" y1="262" y2="252"/><line style="stroke:#181818;stroke-width:1.0;" x1="40" x2="253" y1="262" y2="262"/><line style="stroke:#181818;stroke-width:1.0;" x1="253" x2="253" y1="262" y2="535"/><text fill="#000000" font-family="sans-serif" font-size="14" font-style="italic" lengthAdjust="spacing" textLength="67" x="114" y="277.9951">&#171;docker&#187;</text><text fill="#000000" font-family="sans-serif" font-size="14" font-weight="bold" lengthAdjust="spacing" textLength="147" x="74" y="294.292">server application</text></g><!--cluster cmp2--><g id="cluster_cmp2"><polygon fill="none" points="287,427,297,417,656,417,656,525,646,535,287,535,287,427" style="stroke:#181818;stroke-width:1.0;"/><line style="stroke:#181818;stroke-width:1.0;" x1="646" x2="656" y1="427" y2="417"/><line style="stroke:#181818;stroke-width:1.0;" x1="287" x2="646" y1="427" y2="427"/><line style="stroke:#181818;stroke-width:1.0;" x1="646" x2="646" y1="427" y2="535"/><text fill="#000000" font-family="sans-serif" font-size="14" font-style="italic" lengthAdjust="spacing" textLength="67" x="434" y="442.9951">&#171;docker&#187;</text><text fill="#000000" font-family="sans-serif" font-size="14" font-weight="bold" lengthAdjust="spacing" textLength="168" x="383.5" y="459.292">frontend application</text></g><!--cluster admindev--><g id="cluster_admindev"><polygon fill="none" points="32,16,42,6,242,6,242,114,232,124,32,124,32,16" style="stroke:#181818;stroke-width:1.0;"/><line style="stroke:#181818;stroke-width:1.0;" x1="232" x2="242" y1="16" y2="6"/><line style="stroke:#181818;stroke-width:1.0;" x1="32" x2="232" y1="16" y2="16"/><line style="stroke:#181818;stroke-width:1.0;" x1="232" x2="232" y1="16" y2="124"/><text fill="#000000" font-family="sans-serif" font-size="14" font-style="italic" lengthAdjust="spacing" textLength="65" x="100.5" y="31.9951">&#171;device&#187;</text><text fill="#000000" font-family="sans-serif" font-size="14" font-weight="bold" lengthAdjust="spacing" textLength="134" x="66" y="48.292">Admin computer</text></g><!--cluster rpi--><g id="cluster_rpi"><polygon fill="none" points="266,16,276,6,444,6,444,114,434,124,266,124,266,16" style="stroke:#181818;stroke-width:1.0;"/><line style="stroke:#181818;stroke-width:1.0;" x1="434" x2="444" y1="16" y2="6"/><line style="stroke:#181818;stroke-width:1.0;" x1="266" x2="434" y1="16" y2="16"/><line style="stroke:#181818;stroke-width:1.0;" x1="434" x2="434" y1="16" y2="124"/><text fill="#000000" font-family="sans-serif" font-size="14" font-style="italic" lengthAdjust="spacing" textLength="65" x="318.5" y="31.9951">&#171;device&#187;</text><text fill="#000000" font-family="sans-serif" font-size="14" font-weight="bold" lengthAdjust="spacing" textLength="102" x="300" y="48.292">Raspberry Pi</text></g><!--entity bck--><g id="elem_bck"><rect fill="#F1F1F1" height="46.2969" rx="2.5" ry="2.5" style="stroke:#181818;stroke-width:0.5;" width="102" x="145" y="308"/><rect fill="#F1F1F1" height="10" style="stroke:#181818;stroke-width:0.5;" width="15" x="227" y="313"/><rect fill="#F1F1F1" height="2" style="stroke:#181818;stroke-width:0.5;" width="4" x="225" y="315"/><rect fill="#F1F1F1" height="2" style="stroke:#181818;stroke-width:0.5;" width="4" x="225" y="319"/><text fill="#000000" font-family="sans-serif" font-size="14" lengthAdjust="spacing" textLength="62" x="160" y="340.9951">backend</text></g><!--entity flt--><g id="elem_flt"><rect fill="#F1F1F1" height="46.2969" rx="2.5" ry="2.5" style="stroke:#181818;stroke-width:0.5;" width="76" x="137" y="473"/><rect fill="#F1F1F1" height="10" style="stroke:#181818;stroke-width:0.5;" width="15" x="193" y="478"/><rect fill="#F1F1F1" height="2" style="stroke:#181818;stroke-width:0.5;" width="4" x="191" y="480"/><rect fill="#F1F1F1" height="2" style="stroke:#181818;stroke-width:0.5;" width="4" x="191" y="484"/><text fill="#000000" font-family="sans-serif" font-size="14" lengthAdjust="spacing" textLength="36" x="152" y="505.9951">filter</text></g><!--entity cfr--><g id="elem_cfr"><rect fill="#F1F1F1" height="46.2969" rx="2.5" ry="2.5" style="stroke:#181818;stroke-width:0.5;" width="149" x="303.5" y="473"/><rect fill="#F1F1F1" height="10" style="stroke:#181818;stroke-width:0.5;" width="15" x="432.5" y="478"/><rect fill="#F1F1F1" height="2" style="stroke:#181818;stroke-width:0.5;" width="4" x="430.5" y="480"/><rect fill="#F1F1F1" height="2" style="stroke:#181818;stroke-width:0.5;" width="4" x="430.5" y="484"/><text fill="#000000" font-family="sans-serif" font-size="14" lengthAdjust="spacing" textLength="109" x="318.5" y="505.9951">client frontend</text></g><!--entity afr--><g id="elem_afr"><rect fill="#F1F1F1" height="46.2969" rx="2.5" ry="2.5" style="stroke:#181818;stroke-width:0.5;" width="152" x="488" y="473"/><rect fill="#F1F1F1" height="10" style="stroke:#181818;stroke-width:0.5;" width="15" x="620" y="478"/><rect fill="#F1F1F1" height="2" style="stroke:#181818;stroke-width:0.5;" width="4" x="618" y="480"/><rect fill="#F1F1F1" height="2" style="stroke:#181818;stroke-width:0.5;" width="4" x="618" y="484"/><text fill="#000000" font-family="sans-serif" font-size="14" lengthAdjust="spacing" textLength="112" x="503" y="505.9951">admin frontend</text></g><!--entity wb2--><g id="elem_wb2"><rect fill="#F1F1F1" height="46.2969" rx="2.5" ry="2.5" style="stroke:#181818;stroke-width:0.5;" width="132" x="94" y="62"/><rect fill="#F1F1F1" height="10" style="stroke:#181818;stroke-width:0.5;" width="15" x="206" y="67"/><rect fill="#F1F1F1" height="2" style="stroke:#181818;stroke-width:0.5;" width="4" x="204" y="69"/><rect fill="#F1F1F1" height="2" style="stroke:#181818;stroke-width:0.5;" width="4" x="204" y="73"/><text fill="#000000" font-family="sans-serif" font-size="14" lengthAdjust="spacing" textLength="92" x="109" y="94.9951">web browser</text></g><!--entity wb--><g id="elem_wb"><rect fill="#F1F1F1" height="46.2969" rx="2.5" ry="2.5" style="stroke:#181818;stroke-width:0.5;" width="132" x="282" y="62"/><rect fill="#F1F1F1" height="10" style="stroke:#181818;stroke-width:0.5;" width="15" x="394" y="67"/><rect fill="#F1F1F1" height="2" style="stroke:#181818;stroke-width:0.5;" width="4" x="392" y="69"/><rect fill="#F1F1F1" height="2" style="stroke:#181818;stroke-width:0.5;" width="4" x="392" y="73"/><text fill="#000000" font-family="sans-serif" font-size="14" lengthAdjust="spacing" textLength="92" x="297" y="94.9951">web browser</text></g><!--link bck to afr--><g id="link_bck_afr"><path d="M252.267,339.538 C309.966,349.103 400.806,369.366 470,409 C497.71,424.872 524.063,450.195 541.775,469.26 " fill="none" id="bck-afr" style="stroke:#181818;stroke-width:1.0;"/><rect fill="#FFFFFF" height="10" style="stroke:#181818;stroke-width:1.5;" width="10" x="242.135" y="333.701"/><rect fill="#FFFFFF" height="10" style="stroke:#181818;stroke-width:1.5;" width="10" x="540.2" y="467.985"/><text fill="#000000" font-family="sans-serif" font-size="13" lengthAdjust="spacing" textLength="87" x="450" y="397.0669">&#171;Websocket&#187;</text></g><!--link bck to cfr--><g id="link_bck_cfr"><path d="M236.487,356.929 C248.632,365.037 261.716,374.427 273,384 C304.168,410.443 335.856,445.267 356.146,468.804 " fill="none" id="bck-cfr" style="stroke:#181818;stroke-width:1.0;"/><rect fill="#FFFFFF" height="10" style="stroke:#181818;stroke-width:1.5;" width="10" x="227.06" y="349.002"/><rect fill="#FFFFFF" height="10" style="stroke:#181818;stroke-width:1.5;" width="10" x="354.55" y="467.771"/><text fill="#000000" font-family="sans-serif" font-size="13" lengthAdjust="spacing" textLength="87" x="293" y="397.0669">&#171;Websocket&#187;</text></g><!--link wb to bck--><g id="link_wb_bck"><path d="M331.428,112.602 C302.194,159.531 241.795,256.488 212.565,303.409 " fill="none" id="wb-bck" style="stroke:#181818;stroke-width:1.0;"/><rect fill="#FFFFFF" height="10" style="stroke:#181818;stroke-width:1.5;" width="10" x="329.243" y="103.084"/><rect fill="#FFFFFF" height="10" style="stroke:#181818;stroke-width:1.5;" width="10" x="204.835" y="302.79"/><text fill="#000000" font-family="sans-serif" font-size="13" lengthAdjust="spacing" textLength="24" x="325.5" y="153.0669">1..n</text><text fill="#000000" font-family="sans-serif" font-size="13" lengthAdjust="spacing" textLength="49" x="313" y="168.1997">&#171;HTTP&#187;</text></g><!--link wb2 to bck--><g id="link_wb2_bck"><path d="M164.012,113.19 C170.927,160.058 185.015,255.544 191.954,302.574 " fill="none" id="wb2-bck" style="stroke:#181818;stroke-width:1.0;"/><rect fill="#FFFFFF" height="10" style="stroke:#181818;stroke-width:1.5;" width="10" x="158.258" y="103.084"/><rect fill="#FFFFFF" height="10" style="stroke:#181818;stroke-width:1.5;" width="10" x="187.723" y="302.79"/><text fill="#000000" font-family="sans-serif" font-size="13" lengthAdjust="spacing" textLength="24" x="186.5" y="153.0669">1..n</text><text fill="#000000" font-family="sans-serif" font-size="13" lengthAdjust="spacing" textLength="49" x="174" y="168.1997">&#171;HTTP&#187;</text></g><!--link bck to flt--><g id="link_bck_flt"><path d="M192.436,359.661 C188.544,389.876 182.349,437.955 178.487,467.933 " fill="none" id="bck-flt" style="stroke:#181818;stroke-width:1.0;"/><rect fill="#FFFFFF" height="10" style="stroke:#181818;stroke-width:1.5;" width="10" x="188.124" y="349.323"/><rect fill="#FFFFFF" height="10" style="stroke:#181818;stroke-width:1.5;" width="10" x="172.841" y="467.947"/><text fill="#000000" font-family="sans-serif" font-size="13" lengthAdjust="spacing" textLength="73" x="191" y="397.0669">&#171;REST API&#187;</text></g><!--SRC=[XP4nQyCm48Lt_uf3dXE8no8C6GhjPX93bowIB8E88ucJQbDA_tjrifkcJcacWTvtxpsThEiqiA1nrCY0yqwFHkcw1X4Wu0WV1O2zOa1uFnWbed4syqwTDCwyEljT7W1GxkoTrJO2ao8HjcD4I7LQoxqP8aKdjHzYKZ-BIsIFpiOqUoUqkWrLWw7pso3RgnvXpOdkREnlJFH8BG2Ar6JkiSyKZRt5spLbZtIHMrnvJrg2H3U5vNcJh7ui3o9ugH7VeJ5hG_JclXTP5McVK6us9PL-0COuVz4oq7PYNJEsw2Kz_IzvalDqmaZURRVsrNB-rBRDebV_0vVyz7LpmE7nsCA-UIRv2m00]--></g></svg>