<?xml version="1.0" encoding="UTF-8" standalone="no"?><svg xmlns="http://www.w3.org/2000/svg" xmlns:xlink="http://www.w3.org/1999/xlink" contentStyleType="text/css" height="402px" preserveAspectRatio="none" style="width:865px;height:402px;background:#FFFFFF;" version="1.1" viewBox="0 0 865 402" width="865px" zoomAndPan="magnify"><defs/><g><!--cluster srv--><g id="cluster_srv"><polygon fill="none" points="16,16,26,6,501,6,501,375,491,385,16,385,16,16" style="stroke:#181818;stroke-width:1.0;"/><line style="stroke:#181818;stroke-width:1.0;" x1="491" x2="501" y1="16" y2="6"/><line style="stroke:#181818;stroke-width:1.0;" x1="16" x2="491" y1="16" y2="16"/><line style="stroke:#181818;stroke-width:1.0;" x1="491" x2="491" y1="16" y2="385"/><text fill="#000000" font-family="sans-serif" font-size="14" font-style="italic" lengthAdjust="spacing" textLength="65" x="222" y="31.9951">«device»</text><text fill="#000000" font-family="sans-serif" font-size="14" font-weight="bold" lengthAdjust="spacing" textLength="50" x="229.5" y="48.292">server</text></g><!--cluster cmp--><g id="cluster_cmp"><polygon fill="none" points="48,88,58,78,461,78,461,343,451,353,48,353,48,88" style="stroke:#181818;stroke-width:1.0;"/><line style="stroke:#181818;stroke-width:1.0;" x1="451" x2="461" y1="88" y2="78"/><line style="stroke:#181818;stroke-width:1.0;" x1="48" x2="451" y1="88" y2="88"/><line style="stroke:#181818;stroke-width:1.0;" x1="451" x2="451" y1="88" y2="353"/><text fill="#000000" font-family="sans-serif" font-size="14" font-style="italic" lengthAdjust="spacing" textLength="136" x="182.5" y="103.9951">«docker compose»</text><text fill="#000000" font-family="sans-serif" font-size="14" font-weight="bold" lengthAdjust="spacing" textLength="147" x="177" y="120.292">server application</text></g><!--entity bck--><g id="elem_bck"><rect fill="#F1F1F1" height="62.5938" rx="2.5" ry="2.5" style="stroke:#181818;stroke-width:0.5;" width="107" x="64.5" y="134"/><rect fill="#F1F1F1" height="10" style="stroke:#181818;stroke-width:0.5;" width="15" x="151.5" y="139"/><rect fill="#F1F1F1" height="2" style="stroke:#181818;stroke-width:0.5;" width="4" x="149.5" y="141"/><rect fill="#F1F1F1" height="2" style="stroke:#181818;stroke-width:0.5;" width="4" x="149.5" y="145"/><text fill="#000000" font-family="sans-serif" font-size="14" font-style="italic" lengthAdjust="spacing" textLength="67" x="79.5" y="166.9951">«docker»</text><text fill="#000000" font-family="sans-serif" font-size="14" lengthAdjust="spacing" textLength="62" x="82" y="183.292">backend</text></g><!--entity cfr--><g id="elem_cfr"><rect fill="#F1F1F1" height="62.5938" rx="2.5" ry="2.5" style="stroke:#181818;stroke-width:0.5;" width="149" x="295.5" y="134"/><rect fill="#F1F1F1" height="10" style="stroke:#181818;stroke-width:0.5;" width="15" x="424.5" y="139"/><rect fill="#F1F1F1" height="2" style="stroke:#181818;stroke-width:0.5;" width="4" x="422.5" y="141"/><rect fill="#F1F1F1" height="2" style="stroke:#181818;stroke-width:0.5;" width="4" x="422.5" y="145"/><text fill="#000000" font-family="sans-serif" font-size="14" font-style="italic" lengthAdjust="spacing" textLength="67" x="331.5" y="166.9951">«docker»</text><text fill="#000000" font-family="sans-serif" font-size="14" lengthAdjust="spacing" textLength="109" x="310.5" y="183.292">client frontend</text></g><!--entity afr--><g id="elem_afr"><rect fill="#F1F1F1" height="62.5938" rx="2.5" ry="2.5" style="stroke:#181818;stroke-width:0.5;" width="152" x="64" y="274"/><rect fill="#F1F1F1" height="10" style="stroke:#181818;stroke-width:0.5;" width="15" x="196" y="279"/><rect fill="#F1F1F1" height="2" style="stroke:#181818;stroke-width:0.5;" width="4" x="194" y="281"/><rect fill="#F1F1F1" height="2" style="stroke:#181818;stroke-width:0.5;" width="4" x="194" y="285"/><text fill="#000000" font-family="sans-serif" font-size="14" font-style="italic" lengthAdjust="spacing" textLength="67" x="101.5" y="306.9951">«docker»</text><text fill="#000000" font-family="sans-serif" font-size="14" lengthAdjust="spacing" textLength="112" x="79" y="323.292">admin frontend</text></g><!--entity rpi--><g id="elem_rpi"><polygon fill="#F1F1F1" points="525.5,284,535.5,274,656.5,274,656.5,326.5938,646.5,336.5938,525.5,336.5938,525.5,284" style="stroke:#181818;stroke-width:0.5;"/><line style="stroke:#181818;stroke-width:0.5;" x1="646.5" x2="656.5" y1="284" y2="274"/><line style="stroke:#181818;stroke-width:0.5;" x1="525.5" x2="646.5" y1="284" y2="284"/><line style="stroke:#181818;stroke-width:0.5;" x1="646.5" x2="646.5" y1="284" y2="336.5938"/><text fill="#000000" font-family="sans-serif" font-size="14" font-style="italic" lengthAdjust="spacing" textLength="65" x="553.5" y="306.9951">«device»</text><text fill="#000000" font-family="sans-serif" font-size="14" lengthAdjust="spacing" textLength="91" x="540.5" y="323.292">Raspberry Pi</text></g><!--entity api--><g id="elem_api"><path d="M700.8153,290.9578 C704.5759,283.8974 709.9968,284.9049 714.4051,290.2483 C718.5611,284.7989 722.6282,284.8127 726.4866,290.5691 C729.7813,284.0448 733.8366,284.2062 738.0234,289.7138 C742.4508,282.5138 746.513,282.7865 751.3461,289.3203 C754.9521,283.985 759.24,284.1964 762.9188,289.2391 C765.5164,282.956 771.1119,282.6406 774.4138,288.5766 C779.2184,281.4558 783.6491,282.1375 788.0091,289.0086 C791.2733,284.0723 796.9245,283.5616 799.2564,289.9357 C803.4,283.9677 808.7035,283.7138 812.8366,289.9474 C815.7803,283.8719 821.087,284.5617 824.4728,289.4793 C828.787,283.9236 832.6149,285.7056 835.6943,290.7824 C840.1392,285.5533 844.9888,285.9998 848.3415,292.0114 C856.854,295.4671 857.9214,300.926 851.9169,307.6918 C858.1737,312.4401 857.4057,318.7685 850.1421,321.8181 C846.997,329.9037 840.6933,330.5612 835.8369,323.4266 C832.3216,328.363 827.3969,327.7994 824.5536,322.6731 C821.608,328.982 817.6354,330.0675 812.7568,324.6111 C808.9407,331.2446 804.6088,330.7775 800.4112,324.9903 C797.6257,332.3811 791.5413,332.5183 787.5172,326.1512 C784.2081,331.4541 779.5517,332.4639 775.9808,326.4173 C771.3489,331.3826 766.2755,331.4592 762.7298,325.1416 C758.8345,331.2173 752.8944,330.6998 749.3783,324.7215 C746.1586,330.3846 741.2773,330.4553 737.7906,324.9998 C732.5204,329.6726 728.6711,328.9181 725.6496,322.5312 C722.1144,328.1011 716.3104,327.7764 713.3668,321.8965 C709.6074,326.5464 705.637,327.0505 701.9621,321.7992 C691.6752,320.6982 687.3951,316.4403 692.8744,306.1713 C687.414,296.755 690.3978,292.0864 700.8153,290.9578 " fill="#F1F1F1" style="stroke:#181818;stroke-width:0.5;"/><text fill="#000000" font-family="sans-serif" font-size="14" lengthAdjust="spacing" textLength="134" x="707" y="310.4951">Social Network API</text></g><!--entity lbr--><g id="elem_lbr"><path d="M611.4747,151.1635 C614.9971,145.282 620.6229,144.6689 623.8728,151.4307 C627.5439,144.9499 631.9652,143.2782 637.2745,149.7335 C640.6687,143.6044 646.1216,144.7319 649.4201,149.8369 C653.3755,144.729 657.1963,145.0729 661.1366,149.8548 C663.5848,144.3348 668.6969,143.7562 672.2936,148.6208 C676.0374,143.875 681.0118,143.786 684.3601,149.0954 C688.2998,143.3864 693.1019,142.3705 697.1917,148.9386 C700.9414,144.2841 705.255,143.2637 708.3774,149.5783 C711.8356,143.4426 718.3376,142.663 722.413,148.8769 C725.9958,142.2722 730.8544,142.0939 734.6645,148.6657 C738.2012,143.4801 743.611,143.1651 746.5049,149.3359 C750.3313,143.915 756.2584,144.7157 758.7084,150.7963 C762.675,146.4948 766.3331,147.428 769.1123,152.1633 C773.8311,146.0139 778.4164,145.649 782.9746,152.3367 C793.1058,151.6699 796.9362,156.2809 792.6877,165.9067 C798.0537,176.2931 792.6734,181.406 782.4823,181.8077 C779.2537,188.5863 775.4412,187.9538 770.7751,183.2768 C766.1579,188.8574 761.6405,187.6511 758.0423,182.1102 C756.0133,188.2606 750.3391,189.2437 746.5428,183.8744 C742.3124,189.8345 737.5509,188.9747 734.1538,183.0088 C731.5349,188.7406 726.6234,190.5605 722.4319,184.583 C719.7009,191.7517 713.4837,191.9678 709.7961,185.4673 C704.842,192.7297 700.6518,191.6878 696.0332,185.1331 C692.9623,190.7212 689.1855,190.0902 685.9537,185.2892 C680.9397,191.9093 676.8984,191.0471 672.5289,184.6259 C668.7604,191.3686 664.2616,190.3422 660.1818,184.9426 C656.6791,189.762 651.7388,189.0243 648.8005,184.2715 C644.2824,189.964 640.7445,189.7223 637.2966,183.2587 C633.3828,189.9663 627.2995,188.2663 624.4256,182.21 C620.6449,188.3274 617.1207,188.1985 613.2016,182.3396 C602.7456,181.9497 597.724,176.2586 601.1667,165.7723 C598.0762,156.735 600.8944,150.5547 611.4747,151.1635 " fill="#F1F1F1" style="stroke:#181818;stroke-width:0.5;"/><text fill="#000000" font-family="sans-serif" font-size="14" lengthAdjust="spacing" textLength="156" x="618" y="170.4951">Learning Behavior API</text></g><!--link srv to api--><g id="link_srv_api"><path d="M501.0588,170.4577 C501.2036,170.5288 501.3502,170.6008 501.4986,170.6737 C501.7954,170.8194 502.0993,170.9687 502.4102,171.1214 C503.0321,171.4268 503.6821,171.746 504.3595,172.0786 C505.7141,172.7439 507.1781,173.4629 508.7448,174.2323 C511.8781,175.7711 515.4224,177.5117 519.3255,179.4285 C534.9375,187.0956 556.2886,197.5811 580.0344,209.2428 C627.526,232.566 684.5965,260.5935 724.491,280.186 " fill="none" id="srv-to-api" style="stroke:#181818;stroke-width:1.0;"/><ellipse cx="729.176" cy="282.487" fill="#FFFFFF" rx="6" ry="6" style="stroke:#181818;stroke-width:1.5;"/><path d="M725.9459,273.023 A10,10 0 0 0 719.712 285.7171" fill="#FFFFFF" style="stroke:#181818;stroke-width:1.5;"/><text fill="#000000" font-family="sans-serif" font-size="13" lengthAdjust="spacing" textLength="73" x="651" y="240.0669">«REST API»</text><text fill="#000000" font-family="sans-serif" font-size="13" lengthAdjust="spacing" textLength="24" x="689.9046" y="271.3315">1..n</text></g><!--link srv to lbr--><g id="link_srv_lbr"><path d="M501.2337,165.5 C502.5323,165.5 503.9694,165.5 505.534,165.5 C511.7923,165.5 520.0909,165.5 529.7274,165.5 C549.0003,165.5 573.6245,165.5 597.981,165.5 " fill="none" id="srv-to-lbr" style="stroke:#181818;stroke-width:1.0;"/><ellipse cx="602.994" cy="165.5" fill="#FFFFFF" rx="6" ry="6" style="stroke:#181818;stroke-width:1.5;"/><path d="M595.9229,158.4289 A10,10 0 0 0 595.9229 172.5711" fill="#FFFFFF" style="stroke:#181818;stroke-width:1.5;"/><text fill="#000000" font-family="sans-serif" font-size="13" lengthAdjust="spacing" textLength="73" x="511.68" y="158.5669">«REST API»</text></g><!--reverse link srv to rpi--><g id="link_srv_rpi"><path d="M501.1532,177.981 C501.229,178.0877 501.3052,178.1951 501.3819,178.3031 C501.5353,178.5191 501.6904,178.7376 501.8473,178.9585 C506.8676,186.0279 513.6636,195.5978 521.2779,206.32 C536.5065,227.7645 555.0085,253.8185 569.125,273.697 " fill="none" id="srv-backto-rpi" style="stroke:#181818;stroke-width:1.0;"/><ellipse cx="501.1532" cy="177.981" fill="#FFFFFF" rx="6" ry="6" style="stroke:#181818;stroke-width:1.5;"/><path d="M499.4821,187.8404 A10,10 0 0 0 511.0125 179.6521" fill="#FFFFFF" style="stroke:#181818;stroke-width:1.5;"/><text fill="#000000" font-family="sans-serif" font-size="13" lengthAdjust="spacing" textLength="49" x="549" y="240.0669">«HTTP»</text><text fill="#000000" font-family="sans-serif" font-size="13" lengthAdjust="spacing" textLength="24" x="538.1383" y="262.7132">1..n</text></g><!--link bck to afr--><g id="link_bck_afr"><path d="M123.67,202.067 C126.942,222.591 131.044,248.319 134.318,268.856 " fill="none" id="bck-afr" style="stroke:#181818;stroke-width:1.0;"/><rect fill="#FFFFFF" height="10" style="stroke:#181818;stroke-width:1.5;" width="10" x="117.883" y="192.127"/><rect fill="#FFFFFF" height="10" style="stroke:#181818;stroke-width:1.5;" width="10" x="130.131" y="268.959"/><text fill="#000000" font-family="sans-serif" font-size="13" lengthAdjust="spacing" textLength="87" x="132" y="240.0669">«Websocket»</text></g><!--link bck to cfr--><g id="link_bck_cfr"><path d="M176.889,165.5 C210.558,165.5 253.256,165.5 289.936,165.5 " fill="none" id="bck-cfr" style="stroke:#181818;stroke-width:1.0;"/><rect fill="#FFFFFF" height="10" style="stroke:#181818;stroke-width:1.5;" width="10" x="166.751" y="160.5"/><rect fill="#FFFFFF" height="10" style="stroke:#181818;stroke-width:1.5;" width="10" x="290.302" y="160.5"/><text fill="#000000" font-family="sans-serif" font-size="13" lengthAdjust="spacing" textLength="87" x="190" y="158.5669">«Websocket»</text></g><!--SRC=[TP31IiGm48RlUOeXlUWXo-vLbWK5GK6MiblmdAPJ3KqdOL8h8llk9gsuQz5JOFxlI_8F-GP1HkGHMS9ss-1e3Uvse2D47k5J0D050pe4PuqUhAU9zwPBK-FxuEEtP_emUJ2F2Ma0MUi4KdDsPhOstP8qpkQpPK_37uPf6PQARdfB_ngwvIISn4c8kSf1nr0ZymUKTbcQWnN2EF_MW3nwOxM3FGxldZkuBH_bTDy5yeIQoT8BtE6h7gtd7yhLB4HUeL9Nw-pSf9SEzySg4-ajkLcjICv40XB-6vYIzRLI-KivUgYgykobnK6XL97RvVGPwvWx3ycSioAlQX5z0G00]--></g></svg>