<?xml version="1.0" encoding="UTF-8" standalone="no"?><svg xmlns="http://www.w3.org/2000/svg" xmlns:xlink="http://www.w3.org/1999/xlink" contentStyleType="text/css" height="588px" preserveAspectRatio="none" style="width:685px;height:588px;background:#FFFFFF;" version="1.1" viewBox="0 0 685 588" width="685px" zoomAndPan="magnify"><defs/><g><!--MD5=[60458ea4c7e04341e5153d3bb1b8580b]
cluster srv--><g id="cluster_srv"><polygon fill="none" points="234,212,244,202,668,202,668,561,658,571,234,571,234,212" style="stroke:#181818;stroke-width:1.0;"/><line style="stroke:#181818;stroke-width:1.0;" x1="658" x2="668" y1="212" y2="202"/><line style="stroke:#181818;stroke-width:1.0;" x1="234" x2="658" y1="212" y2="212"/><line style="stroke:#181818;stroke-width:1.0;" x1="658" x2="658" y1="212" y2="571"/><text fill="#000000" font-family="sans-serif" font-size="14" font-style="italic" lengthAdjust="spacing" textLength="53" x="420.5" y="229.9659">«device»</text><text fill="#000000" font-family="sans-serif" font-size="14" font-weight="bold" lengthAdjust="spacing" textLength="43" x="425.5" y="249.0339">server</text></g><!--MD5=[5dcb4bb2a85d3ef664a5f7ef4bc20494]
cluster cmp--><g id="cluster_cmp"><polygon fill="none" points="258,282,268,272,644,272,644,537,634,547,258,547,258,282" style="stroke:#181818;stroke-width:1.0;"/><line style="stroke:#181818;stroke-width:1.0;" x1="634" x2="644" y1="282" y2="272"/><line style="stroke:#181818;stroke-width:1.0;" x1="258" x2="634" y1="282" y2="282"/><line style="stroke:#181818;stroke-width:1.0;" x1="634" x2="634" y1="282" y2="547"/><text fill="#000000" font-family="sans-serif" font-size="14" font-style="italic" lengthAdjust="spacing" textLength="56" x="419" y="299.9659">«docker»</text><text fill="#000000" font-family="sans-serif" font-size="14" font-weight="bold" lengthAdjust="spacing" textLength="124" x="385" y="319.0339">server application</text></g><!--MD5=[8f6a94d1575cb1c3bf8ff2da194cf941]
cluster admindev--><g id="cluster_admindev"><polygon fill="none" points="16,282,26,272,210,272,210,389,200,399,16,399,16,282" style="stroke:#181818;stroke-width:1.0;"/><line style="stroke:#181818;stroke-width:1.0;" x1="200" x2="210" y1="282" y2="272"/><line style="stroke:#181818;stroke-width:1.0;" x1="16" x2="200" y1="282" y2="282"/><line style="stroke:#181818;stroke-width:1.0;" x1="200" x2="200" y1="282" y2="399"/><text fill="#000000" font-family="sans-serif" font-size="14" font-style="italic" lengthAdjust="spacing" textLength="53" x="82.5" y="299.9659">«device»</text><text fill="#000000" font-family="sans-serif" font-size="14" font-weight="bold" lengthAdjust="spacing" textLength="118" x="50" y="319.0339">Admin computer</text></g><!--MD5=[9285dec4d163354dab8b9d73ab15042e]
cluster rpi--><g id="cluster_rpi"><polygon fill="none" points="477,16,487,6,640,6,640,123,630,133,477,133,477,16" style="stroke:#181818;stroke-width:1.0;"/><line style="stroke:#181818;stroke-width:1.0;" x1="630" x2="640" y1="16" y2="6"/><line style="stroke:#181818;stroke-width:1.0;" x1="477" x2="630" y1="16" y2="16"/><line style="stroke:#181818;stroke-width:1.0;" x1="630" x2="630" y1="16" y2="133"/><text fill="#000000" font-family="sans-serif" font-size="14" font-style="italic" lengthAdjust="spacing" textLength="53" x="528" y="33.9659">«device»</text><text fill="#000000" font-family="sans-serif" font-size="14" font-weight="bold" lengthAdjust="spacing" textLength="87" x="511" y="53.0339">Raspberry Pi</text></g><!--MD5=[2130d4c06d766c6db43750bb2141585a]
entity bck--><g id="elem_bck"><rect fill="#F1F1F1" height="49.0679" rx="2.5" ry="2.5" style="stroke:#181818;stroke-width:0.5;" width="97" x="274.5" y="334"/><rect fill="#F1F1F1" height="10" style="stroke:#181818;stroke-width:0.5;" width="15" x="351.5" y="339"/><rect fill="#F1F1F1" height="2" style="stroke:#181818;stroke-width:0.5;" width="4" x="349.5" y="341"/><rect fill="#F1F1F1" height="2" style="stroke:#181818;stroke-width:0.5;" width="4" x="349.5" y="345"/><text fill="#000000" font-family="sans-serif" font-size="14" lengthAdjust="spacing" textLength="57" x="289.5" y="368.9659">backend</text></g><!--MD5=[d7ad38f009e5e11ff7675977fb516bc4]
entity cfr--><g id="elem_cfr"><rect fill="#F1F1F1" height="49.0679" rx="2.5" ry="2.5" style="stroke:#181818;stroke-width:0.5;" width="140" x="488" y="334"/><rect fill="#F1F1F1" height="10" style="stroke:#181818;stroke-width:0.5;" width="15" x="608" y="339"/><rect fill="#F1F1F1" height="2" style="stroke:#181818;stroke-width:0.5;" width="4" x="606" y="341"/><rect fill="#F1F1F1" height="2" style="stroke:#181818;stroke-width:0.5;" width="4" x="606" y="345"/><text fill="#000000" font-family="sans-serif" font-size="14" lengthAdjust="spacing" textLength="100" x="503" y="368.9659">client frontend</text></g><!--MD5=[75b8ebfb4179fa7b4bc7b1009d26ac20]
entity afr--><g id="elem_afr"><rect fill="#F1F1F1" height="49.0679" rx="2.5" ry="2.5" style="stroke:#181818;stroke-width:0.5;" width="146" x="274" y="482"/><rect fill="#F1F1F1" height="10" style="stroke:#181818;stroke-width:0.5;" width="15" x="400" y="487"/><rect fill="#F1F1F1" height="2" style="stroke:#181818;stroke-width:0.5;" width="4" x="398" y="489"/><rect fill="#F1F1F1" height="2" style="stroke:#181818;stroke-width:0.5;" width="4" x="398" y="493"/><text fill="#000000" font-family="sans-serif" font-size="14" lengthAdjust="spacing" textLength="106" x="289" y="516.9659">admin frontend</text></g><!--MD5=[2a0dabb434da0f6f7ca856bd1ef9c60e]
entity flt--><g id="elem_flt"><rect fill="#F1F1F1" height="49.0679" rx="2.5" ry="2.5" style="stroke:#181818;stroke-width:0.5;" width="72" x="455" y="482"/><rect fill="#F1F1F1" height="10" style="stroke:#181818;stroke-width:0.5;" width="15" x="507" y="487"/><rect fill="#F1F1F1" height="2" style="stroke:#181818;stroke-width:0.5;" width="4" x="505" y="489"/><rect fill="#F1F1F1" height="2" style="stroke:#181818;stroke-width:0.5;" width="4" x="505" y="493"/><text fill="#000000" font-family="sans-serif" font-size="14" lengthAdjust="spacing" textLength="32" x="470" y="516.9659">filter</text></g><!--MD5=[ba2a19ed041c2ed76f2aa630a2221317]
entity wb2--><g id="elem_wb2"><rect fill="#F1F1F1" height="49.0679" rx="2.5" ry="2.5" style="stroke:#181818;stroke-width:0.5;" width="127" x="66.5" y="334"/><rect fill="#F1F1F1" height="10" style="stroke:#181818;stroke-width:0.5;" width="15" x="173.5" y="339"/><rect fill="#F1F1F1" height="2" style="stroke:#181818;stroke-width:0.5;" width="4" x="171.5" y="341"/><rect fill="#F1F1F1" height="2" style="stroke:#181818;stroke-width:0.5;" width="4" x="171.5" y="345"/><text fill="#000000" font-family="sans-serif" font-size="14" lengthAdjust="spacing" textLength="87" x="81.5" y="368.9659">web browser</text></g><!--MD5=[cc6593c7725ff0aed46a7b076a6ae0ec]
entity wb--><g id="elem_wb"><rect fill="#F1F1F1" height="49.0679" rx="2.5" ry="2.5" style="stroke:#181818;stroke-width:0.5;" width="127" x="494.5" y="68"/><rect fill="#F1F1F1" height="10" style="stroke:#181818;stroke-width:0.5;" width="15" x="601.5" y="73"/><rect fill="#F1F1F1" height="2" style="stroke:#181818;stroke-width:0.5;" width="4" x="599.5" y="75"/><rect fill="#F1F1F1" height="2" style="stroke:#181818;stroke-width:0.5;" width="4" x="599.5" y="79"/><text fill="#000000" font-family="sans-serif" font-size="14" lengthAdjust="spacing" textLength="87" x="509.5" y="102.9659">web browser</text></g><!--MD5=[7ae4ff1aa7a0e33e65c77d6ef85b84fa]
link bck to afr--><g id="link_bck_afr"><path d="M327.83,388.91 C331.99,414.19 337.96,450.49 342.13,475.85 " fill="none" id="bck-afr" style="stroke:#181818;stroke-width:1.0;"/><rect fill="#FFFFFF" height="10" style="stroke:#181818;stroke-width:1.5;" width="10" x="338.09" y="475.73"/><rect fill="#FFFFFF" height="10" style="stroke:#181818;stroke-width:1.5;" width="10" x="321.91" y="379.28"/><text fill="#000000" font-family="sans-serif" font-size="13" lengthAdjust="spacing" textLength="80" x="338" y="438.897">«Websocket»</text></g><!--MD5=[6b04840194ce5f140bd18ded2d09d03e]
link bck to cfr--><g id="link_bck_cfr"><path d="M377.57,358.5 C408.57,358.5 447.85,358.5 481.84,358.5 " fill="none" id="bck-cfr" style="stroke:#181818;stroke-width:1.0;"/><rect fill="#FFFFFF" height="10" style="stroke:#181818;stroke-width:1.5;" width="10" x="481.69" y="353.5"/><rect fill="#FFFFFF" height="10" style="stroke:#181818;stroke-width:1.5;" width="10" x="367.98" y="353.5"/><text fill="#000000" font-family="sans-serif" font-size="13" lengthAdjust="spacing" textLength="80" x="389.75" y="351.397">«Websocket»</text></g><!--MD5=[c83ed5016b007bbb46d9091265355d67]
link wb to cfr--><g id="link_wb_cfr"><path d="M558,123.25 C558,174.12 558,277.19 558,327.93 " fill="none" id="wb-cfr" style="stroke:#181818;stroke-width:1.0;"/><rect fill="#FFFFFF" height="10" style="stroke:#181818;stroke-width:1.5;" width="10" x="553" y="327.85"/><rect fill="#FFFFFF" height="10" style="stroke:#181818;stroke-width:1.5;" width="10" x="553" y="113.39"/><text fill="#000000" font-family="sans-serif" font-size="13" lengthAdjust="spacing" textLength="21" x="571.5" y="163.897">1..n</text><text fill="#000000" font-family="sans-serif" font-size="13" lengthAdjust="spacing" textLength="46" x="559" y="181.603">«HTTP»</text></g><!--MD5=[37dfaf6e655858b5ce05cc8642744f21]
link wb2 to afr--><g id="link_wb2_afr"><path d="M170.19,386.54 C209.2,412.79 268.08,452.4 307.02,478.6 " fill="none" id="wb2-afr" style="stroke:#181818;stroke-width:1.0;"/><rect fill="#FFFFFF" height="10" style="stroke:#181818;stroke-width:1.5;" width="10" x="305.67" y="476.73"/><rect fill="#FFFFFF" height="10" style="stroke:#181818;stroke-width:1.5;" width="10" x="161.35" y="378.28"/><text fill="#000000" font-family="sans-serif" font-size="13" lengthAdjust="spacing" textLength="21" x="277.5" y="429.897">1..n</text><text fill="#000000" font-family="sans-serif" font-size="13" lengthAdjust="spacing" textLength="46" x="265" y="447.603">«HTTP»</text></g><!--MD5=[7e37cbd2384e4d7a937aa32fc07f9379]
link bck to flt--><g id="link_bck_flt"><path d="M377.04,382.32 C394.1,391.04 412.32,402.06 427,415 C446.96,432.6 464.03,457.59 475.51,476.86 " fill="none" id="bck-flt" style="stroke:#181818;stroke-width:1.0;"/><rect fill="#FFFFFF" height="10" style="stroke:#181818;stroke-width:1.5;" width="10" x="473.3" y="475.62"/><rect fill="#FFFFFF" height="10" style="stroke:#181818;stroke-width:1.5;" width="10" x="367.78" y="374.68"/><text fill="#000000" font-family="sans-serif" font-size="13" lengthAdjust="spacing" textLength="66" x="459" y="438.897">«REST API»</text></g><!--MD5=[3b9d1c4f9a74e7dbaa84e61c084acee0]
@startuml deployment
node "server" <<device>> as srv {
  node "server application" <<docker>> as cmp {
    component "backend" as bck
    component "client frontend" as cfr 
    component "admin frontend" as afr
    component "filter" as flt
  }
}

node "Admin computer" <<device>> as admindev {
  component "web browser" as wb2
}

node "Raspberry Pi" <<device>> as rpi {
  component "web browser" as wb
}


bck #- -# afr: ""<<Websocket>>""
bck #-# cfr: ""<<Websocket>>""
wb #- -# cfr: ""1..n\n<<HTTP>>""
wb2 #- -# afr: ""1..n\n<<HTTP>>""
bck #- -# flt: ""<<REST API>>""
@enduml

PlantUML version 1.2022.7(Mon Aug 22 19:01:30 CEST 2022)
(GPL source distribution)
Java Runtime: OpenJDK Runtime Environment
JVM: OpenJDK 64-Bit Server VM
Default Encoding: UTF-8
Language: en
Country: US
--></g></svg>